<svg width="420" height="420" viewBox="0 0 420 420" fill="none" xmlns="http://www.w3.org/2000/svg">
<g clip-path="url(#clip0_2010_1509)">
<rect width="420" height="420" fill="url(#paint0_linear_2010_1509)"/>
<mask id="mask0_2010_1509" style="mask-type:luminance" maskUnits="userSpaceOnUse" x="-57" y="-394" width="592" height="839">
<path d="M-57 -394H535V444.03H-57V-394Z" fill="white"/>
</mask>
<g mask="url(#mask0_2010_1509)">
<path d="M234.475 -6.42496C334.647 -55.016 434.818 -103.608 534.989 -152.199C535.211 46.5534 535.432 245.306 535.653 444.058H234.923C234.774 293.897 234.624 143.736 234.475 -6.42496Z" fill="#49143A"/>
<path d="M239.024 140.395C239.184 145.756 239.343 151.119 239.502 156.481L239.024 168.966V444.058H-56.5362C-56.6768 255.004 -56.8245 65.9501 -56.9651 -123.104C-27.1995 -108.427 2.5661 -93.751 32.3387 -79.0747C61.9637 -64.4688 91.5886 -49.8698 121.214 -35.2639C126.101 -23.2131 130.988 -11.1623 135.875 0.888489C140.811 13.073 145.755 25.2505 150.691 37.435V37.5195L150.733 37.5406C160.493 61.614 170.253 85.6804 180.013 109.754C180.035 109.803 180.056 109.859 180.077 109.909H180.084V28.6996C180.084 17.6062 180.091 6.63934 180.091 -3.70801C189.914 0.733612 199.59 5.44977 209.294 10.1237C219.138 14.875 228.997 19.5912 239.024 23.9694V140.395Z" fill="#571641"/>
<mask id="mask1_2010_1509" style="mask-type:luminance" maskUnits="userSpaceOnUse" x="4" y="50" width="147" height="395">
<path d="M4.24829 50.479H150.403V444.055H4.24829V50.479Z" fill="white"/>
</mask>
<g mask="url(#mask1_2010_1509)">
<g opacity="0.559998">
<path d="M149.566 214.104V444.055H4.36459V124.864C4.08753 118.55 2.36685 65.919 30.5594 53.4247C35.8902 51.0596 40.8934 50.7499 44.5548 50.5598C45.8402 50.4894 47.1256 50.4613 48.3984 50.4895C76.1684 50.9681 100.202 72.2259 106.333 77.6671C137.436 105.183 154.481 158.728 149.566 214.104Z" fill="#2D0F29"/>
</g>
</g>
<path d="M223.674 -13.7812C219.054 -16.0337 214.427 -18.258 209.856 -20.4331C200.391 -14.7526 189.865 -8.83279 180.091 -3.70839C180.091 6.63896 180.084 17.6057 180.084 28.6992C170.19 2.50706 160.296 -23.6921 150.402 -49.8843C140.67 -45.0133 130.945 -40.1353 121.213 -35.2643C130.945 -40.1423 140.67 -45.0203 150.402 -49.8913C150.346 -49.9195 141.43 -54.3189 127.324 -61.2664C126.818 -61.5198 126.297 -61.7732 125.777 -62.0336C125.207 -62.3152 124.631 -62.5968 124.047 -62.8854C123.485 -63.1599 122.915 -63.4414 122.345 -63.723C100.076 -74.7039 67.61 -90.7176 36.4029 -106.098C35.1231 -106.731 33.8503 -107.365 32.5776 -107.984C15.4973 -116.41 -1.06255 -124.575 -15.1965 -131.544C-16.2934 -132.086 -17.3693 -132.614 -18.4311 -133.142C-20.5195 -134.169 -22.5517 -135.176 -24.5206 -136.14C-25.1253 -136.443 -25.7301 -136.739 -26.3207 -137.027C-28.6975 -138.203 -30.9688 -139.322 -33.1275 -140.385C-33.669 -140.652 -34.2034 -140.913 -34.7238 -141.173C-35.0472 -141.335 -35.3707 -141.497 -35.6941 -141.652C-36.1512 -141.87 -36.5942 -142.095 -37.0302 -142.307C-38.0357 -142.806 -39.0061 -143.285 -39.9484 -143.75C-40.6234 -144.08 -41.2774 -144.404 -41.9173 -144.721C-43.0564 -145.284 -44.1463 -145.819 -45.173 -146.326C-45.5738 -146.523 -45.9676 -146.713 -46.3473 -146.903C-46.7341 -147.093 -47.1067 -147.276 -47.4724 -147.459C-47.8381 -147.635 -48.1896 -147.811 -48.5342 -147.98C-48.8998 -148.163 -49.2514 -148.339 -49.596 -148.508C-49.9054 -148.656 -50.2007 -148.804 -50.489 -148.944C-50.6508 -149.029 -50.8195 -149.106 -50.9742 -149.191C-51.2625 -149.324 -51.5368 -149.458 -51.804 -149.592C-54.1948 -150.774 -55.8191 -151.577 -56.5364 -151.929V-152.02L223.674 -13.7812Z" fill="#571641"/>
<path d="M180.084 28.6977V109.787L180.014 109.752C170.253 85.6785 160.493 61.6121 150.733 37.5387C150.719 37.5035 150.705 37.4683 150.691 37.4331C145.755 25.2486 140.811 13.0711 135.875 0.886581C130.988 -11.1642 126.101 -23.215 121.214 -35.2658C130.946 -40.1368 140.671 -45.0148 150.403 -49.8858C160.296 -23.6936 170.19 2.50555 180.084 28.6977Z" fill="#951D5F"/>
<path d="M180.084 109.789V109.908H180.077C180.056 109.859 180.035 109.803 180.014 109.754L180.084 109.789Z" fill="#6F194D"/>
<path d="M534.999 -152.2V-123.135L239.024 23.9678C228.997 19.5895 219.138 14.8734 209.294 10.122C199.59 5.44814 189.914 0.731993 180.091 -3.70962C189.865 -8.83402 200.391 -14.7538 209.856 -20.4343C214.427 -18.2593 219.054 -16.0349 223.674 -13.7824C223.92 -13.6628 224.166 -13.5431 224.412 -13.4235C229.243 -11.0724 234.067 -8.69324 238.806 -6.32109C238.807 -6.32179 239.024 -6.42668 239.024 -6.42668C337.994 -54.3729 436.653 -102.965 534.999 -152.2Z" fill="#951D5F"/>
<path d="M-56.9651 -123.104L121.214 -35.2638L180.014 109.754L180.091 -3.70791L239.024 23.9695L535.464 -123.047" stroke="#AF206A" stroke-width="1.33333" stroke-miterlimit="10"/>
<path d="M-57.0122 -98.8601C-56.0503 -98.9882 -35.1686 -89.2961 -34.2067 -89.4249C-34.3811 -94.1721 28.3201 -66.8171 28.5697 -67.7173C28.7771 -68.4635 39.0998 -64.1394 39.0998 -64.1394C39.225 -64.3119 46.2441 -61.2408 46.5971 -61.4984C47.1716 -61.9165 59.0209 -56.4444 59.3872 -56.4887C60.3597 -56.6077 76.5301 -48.7599 76.9569 -48.5755C77.4217 -48.4783 85.8198 -44.4112 86.1017 -44.3155C86.5328 -44.169 94.8458 -40.1139 95.1967 -39.9006C95.5483 -39.6866 102.553 -36.1263 102.716 -35.9566C102.907 -35.8637 109.493 -32.599 109.79 -32.3477C109.882 -32.2703 120.745 -26.7707 121.289 -25.9598C121.41 -25.7789 128.981 -7.33319 129.267 -6.74121C129.962 -5.30244 148.235 40.3955 148.278 40.5933C148.762 42.7782 177.952 117.094 177.813 118.212C178.493 118.293 181.015 70.2036 183.014 68.5474C183.577 68.0807 183.989 50.7577 184.273 50.3022C184.273 49.4069 184.29 30.0623 184.294 29.5695C184.305 28.4187 184.334 6.20072 184.336 5.47711C184.337 5.27016 189.663 7.55291 189.661 7.30724C189.656 6.5407 204.15 13.0173 204.135 12.2979C204.088 10.0398 238.994 24.0883 239.024 24.0875C239.057 24.0868 330.31 -18.4499 330.511 -9.61453C333.049 -10.8759 402.913 -45.5346 405.454 -46.789C405.899 -47.0093 418.149 -53.0741 418.593 -53.2979C420.651 -54.3369 478.456 -83.0575 480.593 -84.114C481.912 -84.7665 533.05 -110.144 535.431 -111.243" stroke="#AF206A" stroke-width="1.33333" stroke-miterlimit="10"/>
<path d="M-57.0601 -74.6154C-55.1362 -74.8723 -34.8248 -66.0637 -32.9016 -66.3206C-33.2504 -75.8156 24.795 -54.3114 25.2949 -56.1127C25.7091 -57.6042 35.6774 -54.2199 35.6774 -54.2199C35.9537 -54.5444 42.6332 -52.0371 43.3399 -52.5516C44.4882 -53.3893 56.0598 -48.4226 56.7932 -48.512C58.7382 -48.7492 74.5203 -41.2167 75.3733 -40.8486C76.3029 -40.6536 84.4668 -36.7758 85.03 -36.5843C85.8928 -36.2908 93.8845 -32.4377 94.5856 -32.0111C95.2887 -31.5831 102.028 -28.046 102.356 -27.7067C102.735 -27.5216 109.12 -24.3393 109.714 -23.8367C109.897 -23.6818 120.276 -18.2773 121.364 -16.6541C121.606 -16.293 128.861 1.14616 129.432 2.33012C130.823 5.20767 148.039 48.9326 148.126 49.3275C149.093 53.6973 175.889 124.434 175.611 126.671C176.972 126.833 181.98 82.6706 185.978 79.358C187.104 78.4246 187.916 61.8823 188.485 60.9721C188.483 59.1814 188.504 40.5386 188.513 39.5524C188.534 37.2506 188.576 16.1111 188.581 14.6625C188.582 14.2486 193.498 16.1217 193.494 15.6296C193.484 14.0972 206.849 19.7115 206.819 18.2735C206.724 13.7565 238.963 24.2081 239.024 24.2067C239.09 24.206 323.416 -12.178 323.818 5.49275C328.893 2.97137 396.114 -30.3858 401.195 -32.8952C402.087 -33.3358 413.877 -39.1634 414.765 -39.6111C418.882 -41.6897 474.48 -69.3678 478.752 -71.4802C481.391 -72.7853 530.634 -97.2388 535.398 -99.4371" stroke="#AF206A" stroke-width="1.33333" stroke-miterlimit="10"/>
<path d="M-57.1077 -50.3704C-54.2225 -50.7555 -34.4815 -42.8309 -31.5956 -43.216C-32.1195 -57.4587 21.2694 -41.8054 22.0197 -44.5069C22.6406 -46.7446 32.2552 -44.3 32.2552 -44.3C32.6701 -44.7864 39.0226 -42.8331 40.0823 -43.6052C41.8058 -44.861 53.0989 -40.4004 54.1993 -40.5348C57.1168 -40.8903 72.5108 -33.6739 73.7899 -33.1213C75.1843 -32.8292 83.1134 -29.1401 83.9586 -28.8529C85.2532 -28.4129 92.9234 -24.7618 93.974 -24.122C95.0295 -23.4793 101.503 -19.9661 101.995 -19.4572C102.565 -19.1799 108.746 -16.0792 109.637 -15.3253C109.912 -15.093 119.806 -9.78279 121.439 -7.3487C121.802 -6.8074 128.74 9.62588 129.598 11.4011C131.683 15.7181 147.843 57.47 147.975 58.0627C149.425 64.6168 173.827 131.776 173.409 135.131C175.451 135.373 182.945 95.1386 188.942 90.1698C190.632 88.769 191.843 73.0066 192.695 71.6417C192.693 68.9556 192.719 51.0153 192.732 49.5357C192.763 46.083 192.819 26.0212 192.826 23.8489C192.828 23.2281 197.333 24.6901 197.328 23.9524C197.313 21.6541 209.547 26.4069 209.502 24.2487C209.36 17.4737 238.932 24.3283 239.024 24.3269C239.122 24.3248 316.522 -5.9057 317.125 20.6004C324.739 16.8183 389.314 -15.2373 396.937 -19.0011C398.274 -19.6613 409.606 -25.2517 410.937 -25.9239C417.113 -29.0415 470.505 -55.6778 476.912 -58.8461C480.871 -60.8037 528.22 -84.3337 535.364 -87.6314" stroke="#AF206A" stroke-width="1.33333" stroke-miterlimit="10"/>
<path d="M-57.1555 -26.1239C-53.3084 -26.637 -34.1376 -19.5966 -30.2905 -20.1105C-30.9888 -39.1003 17.7444 -29.2971 18.745 -32.9003C19.5726 -35.8828 28.8335 -34.3778 28.8335 -34.3778C29.3862 -35.0268 35.4125 -33.6282 36.8251 -34.6573C39.1224 -36.3312 50.1377 -32.3766 51.6053 -32.5554C55.4946 -33.0299 70.5011 -26.1288 72.2063 -25.3918C74.0655 -25.0026 81.7604 -21.5021 82.8869 -21.1199C84.6125 -20.5328 91.9615 -17.0837 93.3629 -16.2306C94.77 -15.3746 100.978 -11.884 101.634 -11.2061C102.394 -10.8359 108.372 -7.81753 109.561 -6.81236C109.927 -6.50264 119.336 -1.28673 121.513 1.95895C121.998 2.68045 128.62 18.1064 129.763 20.4744C132.543 26.2309 147.648 66.009 147.822 66.7988C149.756 75.5384 171.765 139.118 171.208 143.592C173.93 143.915 183.911 107.607 191.906 100.982C194.159 99.1149 195.77 84.1331 196.907 82.3135C196.904 78.732 196.933 61.4935 196.95 59.5212C196.992 54.917 197.061 35.9327 197.07 33.0369C197.073 32.2091 201.168 33.26 201.162 32.2767C201.141 29.2119 212.246 33.1031 212.185 30.2262C211.996 21.193 238.901 24.45 239.024 24.4479C239.154 24.4451 309.629 0.36884 310.432 35.7096C320.583 30.6669 382.515 -0.0872932 392.678 -5.1054C394.461 -5.98599 405.335 -11.3392 407.11 -12.2352C415.345 -16.3925 466.529 -41.9863 475.072 -46.2104C480.351 -48.8212 525.804 -71.4277 535.33 -75.8242" stroke="#AF206A" stroke-width="1.33333" stroke-miterlimit="10"/>
<path d="M-57.2026 -1.87858C-52.3936 -2.52054 -33.7938 3.63649 -28.9847 2.99453C-29.8574 -20.7431 14.22 -16.7907 15.4703 -21.2943C16.5054 -25.0228 25.4118 -24.4576 25.4118 -24.4576C26.1031 -25.2685 31.8023 -24.4238 33.568 -25.7106C36.4405 -27.8033 47.1781 -24.3541 49.012 -24.578C53.8737 -25.1707 68.4921 -18.585 70.6235 -17.6643C72.9475 -17.1779 80.4075 -13.866 81.816 -13.3881C83.9733 -12.6546 91.0009 -9.4068 92.7526 -8.34039C94.5112 -7.27046 100.454 -3.80375 101.274 -2.95555C102.223 -2.49309 107.999 0.44289 109.485 1.69935C109.943 2.0865 118.868 7.20738 121.589 11.2647C122.194 12.1671 128.5 26.5865 129.929 29.5464C133.405 36.7417 147.452 74.5468 147.671 75.5344C150.088 86.4582 169.703 146.46 169.007 152.052C172.41 152.455 184.877 120.075 194.87 111.794C197.687 109.46 199.698 95.2584 201.119 92.9834C201.115 88.5066 201.148 71.9705 201.17 69.5047C201.222 63.7489 201.304 45.8438 201.316 42.2236C201.319 41.1889 205.005 41.8295 204.996 40.599C204.969 36.7691 214.945 39.7987 214.87 36.2025C214.633 24.9105 238.871 24.5705 239.024 24.5677C239.187 24.5649 302.735 6.64144 303.74 50.8183C316.429 44.5141 375.716 15.0615 388.42 8.78834C390.649 7.68814 401.064 2.57219 403.283 1.45229C413.576 -3.74391 462.553 -28.2953 473.233 -33.576C479.83 -36.8392 523.39 -58.5222 535.297 -64.0176" stroke="#AF206A" stroke-width="1.33333" stroke-miterlimit="10"/>
<path d="M-57.249 22.3657C-51.478 21.5956 -33.4492 26.8685 -27.6782 26.0985C-28.7252 -2.38701 10.6964 -4.28544 12.1963 -9.68999C13.4388 -14.164 21.9909 -14.5385 21.9909 -14.5385C22.8206 -15.5113 28.1929 -15.2205 30.3123 -16.7649C33.7586 -19.2757 44.2184 -16.3327 46.4194 -16.6016C52.2536 -17.3125 66.4832 -11.0429 69.0413 -9.93777C71.8302 -9.35353 79.056 -6.23102 80.7458 -5.65664C83.3349 -4.77747 90.0404 -1.73099 92.1429 -0.451997C94.2532 0.832623 99.9306 4.27611 100.914 5.29325C102.054 5.84862 107.626 8.70294 109.41 10.21C109.959 10.6739 118.4 15.7011 121.665 20.5693C122.391 21.6526 128.381 35.0655 130.096 38.6173C134.266 47.2514 147.258 83.0835 147.52 84.2681C150.42 97.3769 167.642 153.8 166.807 160.51C170.89 160.995 185.844 132.542 197.836 122.604C201.215 119.804 203.627 106.383 205.332 103.653C205.327 98.2807 205.364 82.4465 205.39 79.4873C205.452 72.5813 205.548 55.7531 205.562 51.4086C205.565 50.167 208.841 50.3971 208.831 48.921C208.799 44.3253 217.645 46.4926 217.554 42.177C217.27 28.6269 238.842 24.69 239.025 24.6864C239.221 24.6829 295.843 12.913 297.049 65.9252C312.275 58.3604 368.918 30.2099 384.163 22.6817C386.837 21.3612 396.794 16.4825 399.457 15.138C411.808 8.90286 458.579 -14.606 471.394 -20.9433C479.312 -24.8584 520.977 -45.6178 535.266 -52.2127" stroke="#AF206A" stroke-width="1.33333" stroke-miterlimit="10"/>
<path d="M-57.2971 46.6111C-50.5649 45.7122 -33.1056 50.1017 -26.3734 49.2028C-27.5948 15.9702 7.17039 8.22098 8.92131 1.91613C10.3706 -3.304 18.5682 -4.61817 18.5682 -4.61817C19.5365 -5.75286 24.5818 -6.01612 27.0542 -7.8174C31.0757 -10.7477 41.257 -8.31014 43.825 -8.62337C50.6318 -9.45327 64.4732 -3.49898 67.4575 -2.20943C70.7118 -1.52876 77.7021 1.4051 79.6739 2.07521C82.694 3.1015 89.0789 5.94528 91.5316 7.43825C93.9934 8.93686 99.4058 12.3564 100.553 13.5439C101.882 14.1915 107.253 16.9634 109.333 18.7218C109.974 19.2631 117.93 24.1953 121.739 29.8758C122.587 31.1386 128.26 43.5456 130.261 47.6894C135.127 57.7623 147.062 91.6213 147.368 93.0038C150.751 108.297 165.579 161.142 164.605 168.971C169.369 169.535 186.808 145.01 200.799 133.416C204.743 130.149 207.553 117.508 209.543 114.323C209.538 108.055 209.578 92.9235 209.609 89.4709C209.681 81.414 209.79 65.6642 209.806 60.5955C209.811 59.1468 212.676 58.9659 212.664 57.2442C212.627 51.8819 220.343 53.1883 220.237 48.1533C219.906 32.3444 238.81 24.8105 239.024 24.8063C239.252 24.8021 288.949 19.1864 290.356 81.0332C308.12 72.2077 362.118 45.3588 379.903 36.5762C383.024 35.0354 392.523 30.3939 395.629 28.8256C410.04 21.5515 454.603 -0.915651 469.553 -8.30873C478.791 -12.8763 518.561 -32.7123 535.232 -40.4059" stroke="#AF206A" stroke-width="1.33333" stroke-miterlimit="10"/>
<path d="M-57.3445 70.8544C-49.6503 69.8274 -32.762 73.3328 -25.0671 72.3059C-26.4636 34.3255 3.64582 20.7254 5.64636 13.5196C7.30305 7.55399 15.1463 5.30081 15.1463 5.30081C16.2524 4.00352 20.9722 3.18559 23.7975 1.12738C28.3928 -2.22108 38.2964 -0.289575 41.2315 -0.64786C49.0101 -1.59672 62.464 4.04224 65.8744 5.5162C69.5935 6.29472 76.3497 9.03923 78.6027 9.80507C82.0546 10.9778 88.1174 13.6202 90.921 15.3265C93.7344 17.0391 98.881 20.4354 100.192 21.7918C101.712 22.5323 106.879 25.2219 109.257 27.2316C109.99 27.8503 117.461 32.6882 121.814 39.1796C122.783 40.6233 128.14 52.0237 130.427 56.7588C135.987 68.2711 146.867 100.157 147.216 101.737C151.083 119.215 163.517 168.481 162.403 177.429C167.848 178.074 187.774 157.476 203.764 144.226C208.27 140.491 211.481 128.631 213.755 124.991C213.749 117.829 213.793 103.399 213.828 99.4525C213.91 90.2441 214.032 75.5727 214.051 69.7803C214.056 68.1247 216.512 67.5327 216.498 65.5653C216.456 59.4371 223.042 59.8813 222.921 54.1276C222.542 36.0606 238.781 24.9291 239.024 24.9242C239.285 24.9199 282.056 25.457 283.663 96.1399C303.965 86.053 355.319 60.5057 375.646 50.4687C379.211 48.7076 388.252 44.3033 391.802 42.5111C408.271 34.1974 450.627 12.7727 467.714 4.3238C478.271 -0.896335 516.147 -19.8087 535.198 -28.6019" stroke="#AF206A" stroke-width="1.33333" stroke-miterlimit="10"/>
<path d="M-57.3914 95.1027C-48.7352 93.9476 -32.4172 96.5689 -23.7611 95.4138C-25.332 52.6856 0.121705 33.2347 2.37258 25.1286C4.23531 18.4169 11.7256 15.224 11.7256 15.224C12.9695 13.7641 17.3623 12.3929 20.5406 10.077C25.7111 6.30976 35.3369 7.73515 38.6377 7.33252C47.3894 6.26541 60.4552 11.589 64.2918 13.2467C68.4757 14.1223 74.997 16.6782 77.5319 17.5398C81.4156 18.8596 87.1571 21.3 90.3101 23.2196C93.4758 25.1454 98.3573 28.5185 99.8319 30.0446C101.541 30.8773 106.506 33.4853 109.181 35.7462C110.005 36.4424 116.992 41.1859 121.89 48.4889C122.98 50.1128 128.02 60.5066 130.593 65.8337C136.849 78.7848 146.672 108.698 147.065 110.475C151.415 130.139 161.456 175.826 160.203 185.891C166.328 186.618 188.741 169.947 206.729 155.04C211.798 150.839 215.409 139.76 217.966 135.664C217.96 127.606 218.008 113.879 218.048 109.44C218.14 99.0797 218.275 85.486 218.297 78.97C218.302 77.1074 220.348 76.1051 220.332 73.8913C220.285 66.9973 225.741 66.5799 225.605 60.1061C225.179 39.781 238.751 25.0518 239.025 25.0476C239.318 25.042 275.163 31.7326 276.971 111.251C299.811 99.9033 348.52 75.6581 371.388 64.3661C375.4 62.3853 383.981 58.2182 387.976 56.2016C406.503 46.8488 446.652 26.4667 465.874 16.9612C477.751 11.0878 513.733 -6.90035 535.165 -16.793" stroke="#AF206A" stroke-width="1.33333" stroke-miterlimit="10"/>
<path d="M-57.439 119.347C-47.8209 118.063 -32.0739 119.801 -22.4558 118.518C-24.2011 71.0417 -3.40312 45.74 -0.902612 36.7329C1.16755 29.2758 8.30341 25.1432 8.30341 25.1432C9.68587 23.5214 13.7517 21.5962 17.2837 19.0227C23.028 14.8373 32.3761 15.7566 36.0439 15.3097C45.7681 14.1236 58.4458 19.1318 62.7084 20.9739C67.3572 21.9467 73.6443 24.314 76.4605 25.2706C80.7759 26.7368 86.1953 28.9759 89.6993 31.108C93.2166 33.2486 97.8323 36.5984 99.4707 38.2941C101.371 39.2191 106.133 41.7447 109.105 44.2569C110.021 45.0305 116.523 49.679 121.965 57.7936C123.176 59.5984 127.9 68.9856 130.759 74.9047C137.71 89.2946 146.476 117.235 146.913 119.21C151.746 141.057 159.393 183.166 158.001 194.35C164.807 195.157 189.705 182.414 209.693 165.851C215.326 161.183 219.337 150.883 222.178 146.334C222.171 137.379 222.223 124.355 222.267 119.422C222.369 107.911 222.518 95.396 222.541 88.155C222.548 86.0855 224.183 84.6728 224.166 82.2133C224.113 74.5528 228.44 73.2738 228.289 66.0813C227.816 43.4974 238.72 25.1713 239.024 25.1664C239.351 25.16 268.269 38.0048 270.279 126.358C295.656 113.75 341.721 90.8059 367.129 78.2595C371.586 76.0584 379.71 72.1286 384.148 69.888C404.734 59.4956 442.677 40.156 464.034 29.5946C477.231 23.0688 511.318 6.00408 535.133 -4.98734" stroke="#AF206A" stroke-width="1.33333" stroke-miterlimit="10"/>
<path d="M-57.4861 143.592C-46.906 142.18 -31.7293 143.034 -21.15 141.622C-23.0697 89.399 -6.92747 58.2465 -4.17734 48.3391C-1.89974 40.1358 4.88173 35.0635 4.88173 35.0635C6.4027 33.2798 10.1415 30.8007 14.0266 27.9696C20.3453 23.3661 29.4157 23.7793 33.4505 23.2872C44.1473 21.9829 56.436 26.6751 61.1255 28.7016C66.2391 29.7716 72.2913 31.9501 75.3895 33.0025C80.136 34.6158 85.2348 36.6522 89.0889 38.9983C92.9578 41.3529 97.3084 44.6788 99.1106 46.5441C101.2 47.562 105.76 50.0052 109.029 52.7687C110.037 53.6197 116.054 58.174 122.041 67.0994C123.372 69.0851 127.78 77.4651 130.925 83.9769C138.57 99.8062 146.281 125.772 146.762 127.945C152.078 151.977 157.332 190.508 155.8 202.81C163.287 203.698 190.672 194.881 212.657 176.662C218.854 171.527 223.264 162.009 226.39 157.004C226.382 147.155 226.437 134.832 226.486 129.406C226.598 116.744 226.761 105.306 226.786 97.3419C226.794 95.0654 228.02 93.2423 228.001 90.5365C227.942 82.1101 231.139 79.9696 230.973 72.0577C230.452 47.2156 238.69 25.2919 239.024 25.2863C239.384 25.28 261.376 44.2776 263.587 141.466C291.503 127.598 334.922 105.955 362.871 92.1541C367.774 89.7327 375.44 86.04 380.321 83.5757C402.966 72.1443 438.701 53.8464 462.195 42.2292C476.711 35.0508 508.904 18.909 535.1 6.81876" stroke="#AF206A" stroke-width="1.33333" stroke-miterlimit="10"/>
<path d="M-57.5332 167.836C-45.9919 166.296 -31.3855 166.266 -19.8442 164.726C-21.9382 107.755 -10.4525 70.7521 -7.45134 59.943C-4.96701 50.995 1.46005 44.9823 1.46005 44.9823C3.11956 43.0367 6.53139 40.0036 10.7702 36.9156C17.6634 31.8926 26.4553 31.8004 30.8572 31.2633C42.5264 29.8407 54.4271 34.2175 59.5427 36.4278C65.121 37.5956 70.9391 39.5848 74.3186 40.7328C79.4968 42.4926 84.2735 44.3277 88.4785 46.8871C92.699 49.4556 96.7838 52.7583 98.7506 54.7933C101.03 55.9033 105.386 58.2642 108.954 61.279C110.052 62.2075 115.585 66.6667 122.116 76.4044C123.569 78.5696 127.66 85.9437 131.091 93.0475C139.432 110.316 146.086 134.309 146.61 136.679C152.41 162.896 155.269 197.849 153.599 211.268C161.767 212.237 191.638 207.348 215.622 187.472C222.382 181.871 227.192 173.132 230.602 167.673C230.593 156.928 230.653 145.307 230.706 139.388C230.828 125.575 231.004 115.216 231.032 106.527C231.04 104.044 231.855 101.81 231.835 98.8582C231.772 89.6659 233.838 86.6631 233.657 78.0319C233.089 50.9317 238.659 25.411 239.025 25.4047C239.416 25.3977 254.483 50.5488 256.895 156.573C287.348 141.444 328.124 121.103 358.613 106.047C363.962 103.405 371.169 99.9499 376.495 97.2617C401.198 84.7907 434.726 67.5353 460.355 54.8623C476.191 47.0314 506.489 31.813 535.067 18.6233" stroke="#AF206A" stroke-width="1.33333" stroke-miterlimit="10"/>
<path d="M-57.5815 192.081C-45.0783 190.412 -31.0428 189.499 -18.5389 187.83C-20.8081 126.111 -13.9781 83.2577 -10.7273 71.5483C-8.03551 61.8542 -1.96215 54.9025 -1.96215 54.9025C-0.164819 52.7943 2.92073 49.2065 7.51179 45.8616C14.9796 40.4204 23.4944 39.8221 28.2626 39.2407C40.9037 37.6991 52.4168 41.7599 57.9593 44.1553C64.0017 45.4195 69.585 47.2201 73.2464 48.4646C78.8564 50.3701 83.3117 52.0038 87.8669 54.7758C92.439 57.559 96.2587 60.8378 98.3886 63.0424C100.858 64.2454 105.012 66.5246 108.877 69.79C110.067 70.7959 115.116 75.1607 122.191 85.7094C123.764 88.0555 127.539 94.423 131.256 102.118C140.291 120.826 145.89 142.846 146.458 145.413C152.741 173.815 153.206 205.189 151.397 219.728C160.245 220.777 192.602 219.815 218.586 198.284C225.908 192.215 231.119 184.257 234.812 178.343C234.803 166.702 234.867 155.783 234.924 149.372C235.056 134.407 235.246 125.126 235.276 115.713C235.284 113.022 235.69 110.378 235.668 107.181C235.599 97.2217 236.536 93.358 236.34 84.0074C235.725 54.6484 238.628 25.5308 239.024 25.5238C239.448 25.516 247.589 56.8213 250.202 171.68C283.193 155.29 321.323 136.251 354.354 119.941C360.149 117.079 366.897 113.861 372.667 110.948C399.428 97.4385 430.749 81.2256 458.514 67.4953C475.67 59.0126 504.074 44.7177 535.032 30.4292" stroke="#AF206A" stroke-width="1.33333" stroke-miterlimit="10"/>
<path d="M-57.6287 216.327C-44.1635 214.53 -30.6983 212.733 -17.2331 210.935C-19.6767 144.468 -17.5024 95.7647 -14.0013 83.1544C-11.1028 72.7148 -5.38382 64.8234 -5.38382 64.8234C-3.63291 62.4076 -0.689395 58.4115 4.25536 54.809C12.2976 48.949 20.534 47.8453 25.6693 47.2188C39.2829 45.559 50.4079 49.3044 56.3765 51.8835C62.8844 53.2456 68.2328 54.8568 72.1755 56.1971C78.2165 58.2496 82.3505 59.6814 87.2566 62.6666C92.1802 65.6631 95.7348 68.9194 98.0286 71.2929C100.688 72.5888 104.639 74.7857 108.801 78.3024C110.082 79.3857 114.647 83.6562 122.266 95.0165C123.96 97.5428 127.419 102.904 131.422 111.191C141.153 131.337 145.694 151.384 146.306 154.149C153.073 184.736 151.145 212.531 149.196 228.188C158.725 229.319 193.568 232.284 221.551 209.096C229.437 202.561 235.047 195.383 239.025 189.013C239.015 176.478 239.082 166.261 239.143 159.356C239.328 138.635 239.609 130.993 239.502 115.504C239.428 104.78 239.236 100.054 239.025 89.9843C238.361 58.3665 238.598 25.652 239.025 25.6442C239.481 25.6365 240.695 63.0946 243.509 186.789C279.038 169.138 314.567 151.487 350.096 133.835C356.344 130.769 362.592 127.703 368.84 124.637C397.495 109.764 426.774 94.9165 456.675 80.1304C475.15 70.9945 501.659 57.6239 535 42.2359" stroke="#AF206A" stroke-width="1.33333" stroke-miterlimit="10"/>
<path d="M535 55.8988V70.8004L239.024 217.585L221.55 209.096L239.024 200.558L535 55.8988Z" fill="#4F143D"/>
<path d="M534.999 42.2359V55.8987L239.024 200.557L221.55 209.096L239.024 189.013L534.999 42.2359Z" fill="#3B1131"/>
<path d="M535.385 232.652V247.553L239.41 394.338L221.936 385.849L239.41 377.311L535.385 232.652Z" fill="#4F143D"/>
<path d="M535.385 218.987V232.65L239.409 377.308L221.935 385.847L239.409 365.764L535.385 218.987Z" fill="#3B1131"/>
<path d="M48.3984 50.4924C47.1256 50.4642 45.8402 50.4924 44.5548 50.5628C40.8934 50.7528 35.8902 51.0625 30.5594 53.4276C2.36685 65.9219 4.08753 118.553 4.36459 124.867V444.058H-13.8843L-14.5207 443.945V121.523C-14.7978 115.209 -16.5177 62.5854 11.6741 50.0841C17.0049 47.719 22.0088 47.4093 25.6695 47.2192C33.5965 46.7899 41.2843 48.1625 48.3984 50.4924Z" fill="#49143A"/>
</g>
<path d="M121.976 219.384C117.67 232.578 105.351 241.507 91.4541 241.507L122.379 152.22C125.12 144.307 132.582 139 140.966 139C149.353 139 156.817 144.311 159.555 152.228L185.421 227.014C187.875 234.11 182.597 241.507 175.079 241.507C170.34 241.507 166.14 238.461 164.674 233.961L141.495 162.806C141.421 162.579 141.209 162.425 140.969 162.425C140.729 162.425 140.517 162.578 140.443 162.806L121.976 219.384Z" fill="#FAFAFA"/>
<path d="M278.014 139C283.99 139 288.836 143.838 288.836 149.807V229.199C288.836 235.996 283.317 241.507 276.511 241.507C272.467 241.507 268.68 239.526 266.378 236.207L225.457 177.202C225.365 177.069 225.214 176.99 225.051 176.99C224.778 176.99 224.557 177.211 224.557 177.483V230.65C224.557 236.647 219.689 241.507 213.684 241.507C207.68 241.507 202.812 236.646 202.812 230.65V151.488C202.812 144.591 208.411 139 215.317 139C219.435 139 223.289 141.024 225.622 144.412L266.111 203.211C266.221 203.371 266.404 203.467 266.599 203.467C266.926 203.467 267.191 203.203 267.191 202.876V149.807C267.191 143.838 272.037 139 278.014 139Z" fill="#FAFAFA"/>
<path d="M317.673 139C323.678 139 328.546 143.861 328.546 149.857V230.65C328.546 236.647 323.678 241.507 317.673 241.507C311.669 241.507 306.802 236.646 306.802 230.65V149.857C306.802 143.861 311.669 139 317.673 139Z" fill="#FAFAFA"/>
<path d="M92.8049 279.769H91L96.2204 266.617H97.9976L103.218 279.769H101.413L97.1646 268.697H97.0534L92.8049 279.769ZM93.4714 274.631H100.747V276.044H93.4714V274.631ZM112.763 272.113L111.292 272.499C111.199 272.272 111.063 272.051 110.882 271.838C110.706 271.619 110.466 271.439 110.16 271.298C109.855 271.157 109.464 271.086 108.987 271.086C108.334 271.086 107.791 271.225 107.355 271.503C106.925 271.777 106.71 272.126 106.71 272.55C106.71 272.927 106.858 273.225 107.154 273.443C107.45 273.661 107.913 273.843 108.543 273.989L110.125 274.349C111.079 274.562 111.789 274.89 112.257 275.331C112.724 275.767 112.958 276.331 112.958 277.02C112.958 277.585 112.782 278.09 112.43 278.535C112.083 278.981 111.597 279.332 110.972 279.589C110.348 279.845 109.621 279.974 108.793 279.974C107.705 279.974 106.805 279.756 106.092 279.319C105.379 278.882 104.928 278.244 104.738 277.405L106.293 277.046C106.441 277.577 106.721 277.975 107.133 278.24C107.55 278.505 108.094 278.638 108.765 278.638C109.528 278.638 110.135 278.488 110.584 278.189C111.037 277.885 111.264 277.521 111.264 277.097C111.264 276.755 111.134 276.467 110.875 276.237C110.616 276.001 110.218 275.825 109.681 275.709L107.904 275.324C106.927 275.11 106.21 274.779 105.752 274.329C105.298 273.875 105.072 273.308 105.072 272.627C105.072 272.071 105.24 271.578 105.578 271.15C105.921 270.722 106.386 270.386 106.974 270.142C107.566 269.898 108.237 269.776 108.987 269.776C110.042 269.776 110.87 269.99 111.472 270.418C112.078 270.847 112.509 271.412 112.763 272.113ZM122.977 272.113L121.505 272.499C121.413 272.272 121.276 272.051 121.096 271.838C120.92 271.619 120.679 271.439 120.374 271.298C120.068 271.157 119.677 271.086 119.2 271.086C118.548 271.086 118.004 271.225 117.569 271.503C117.139 271.777 116.923 272.126 116.923 272.55C116.923 272.927 117.071 273.225 117.368 273.443C117.664 273.661 118.127 273.843 118.756 273.989L120.339 274.349C121.292 274.562 122.003 274.89 122.47 275.331C122.938 275.767 123.171 276.331 123.171 277.02C123.171 277.585 122.995 278.09 122.644 278.535C122.297 278.981 121.811 279.332 121.186 279.589C120.561 279.845 119.834 279.974 119.006 279.974C117.918 279.974 117.018 279.756 116.306 279.319C115.593 278.882 115.142 278.244 114.952 277.405L116.507 277.046C116.655 277.577 116.935 277.975 117.347 278.24C117.763 278.505 118.307 278.638 118.978 278.638C119.742 278.638 120.348 278.488 120.797 278.189C121.251 277.885 121.477 277.521 121.477 277.097C121.477 276.755 121.348 276.467 121.089 276.237C120.829 276.001 120.431 275.825 119.895 275.709L118.117 275.324C117.141 275.11 116.424 274.779 115.965 274.329C115.512 273.875 115.285 273.308 115.285 272.627C115.285 272.071 115.454 271.578 115.792 271.15C116.134 270.722 116.599 270.386 117.187 270.142C117.78 269.898 118.451 269.776 119.2 269.776C120.256 269.776 121.084 269.99 121.686 270.418C122.292 270.847 122.722 271.412 122.977 272.113ZM125.637 279.769V269.904H127.276V279.769H125.637ZM126.47 268.261C126.151 268.261 125.876 268.159 125.644 267.959C125.418 267.757 125.304 267.515 125.304 267.232C125.304 266.95 125.418 266.708 125.644 266.507C125.876 266.306 126.151 266.205 126.47 266.205C126.79 266.205 127.063 266.306 127.29 266.507C127.521 266.708 127.637 266.95 127.637 267.232C127.637 267.515 127.521 267.757 127.29 267.959C127.063 268.159 126.79 268.261 126.47 268.261ZM137.829 272.113L136.358 272.499C136.265 272.272 136.129 272.051 135.948 271.838C135.772 271.619 135.532 271.439 135.226 271.298C134.921 271.157 134.53 271.086 134.053 271.086C133.4 271.086 132.857 271.225 132.422 271.503C131.991 271.777 131.776 272.126 131.776 272.55C131.776 272.927 131.924 273.225 132.22 273.443C132.516 273.661 132.979 273.843 133.609 273.989L135.191 274.349C136.145 274.562 136.855 274.89 137.323 275.331C137.79 275.767 138.024 276.331 138.024 277.02C138.024 277.585 137.848 278.09 137.496 278.535C137.149 278.981 136.663 279.332 136.038 279.589C135.414 279.845 134.687 279.974 133.859 279.974C132.771 279.974 131.871 279.756 131.158 279.319C130.445 278.882 129.994 278.244 129.804 277.405L131.359 277.046C131.507 277.577 131.788 277.975 132.199 278.24C132.616 278.505 133.16 278.638 133.831 278.638C134.594 278.638 135.201 278.488 135.65 278.189C136.103 277.885 136.33 277.521 136.33 277.097C136.33 276.755 136.2 276.467 135.941 276.237C135.682 276.001 135.284 275.825 134.747 275.709L132.97 275.324C131.993 275.11 131.276 274.779 130.818 274.329C130.364 273.875 130.138 273.308 130.138 272.627C130.138 272.071 130.307 271.578 130.644 271.15C130.987 270.722 131.452 270.386 132.04 270.142C132.632 269.898 133.303 269.776 134.053 269.776C135.108 269.776 135.937 269.99 136.538 270.418C137.145 270.847 137.575 271.412 137.829 272.113ZM145.127 269.904V271.188H139.601V269.904H145.127ZM141.212 267.541H142.85V276.943C142.85 277.371 142.917 277.692 143.052 277.906C143.19 278.116 143.366 278.258 143.579 278.33C143.797 278.399 144.026 278.433 144.266 278.433C144.447 278.433 144.595 278.424 144.711 278.407C144.826 278.386 144.919 278.369 144.988 278.356L145.322 279.717C145.211 279.756 145.056 279.794 144.857 279.833C144.658 279.875 144.405 279.897 144.1 279.897C143.637 279.897 143.183 279.805 142.739 279.621C142.3 279.437 141.934 279.156 141.642 278.779C141.355 278.403 141.212 277.928 141.212 277.354V267.541ZM150.729 280C150.054 280 149.441 279.882 148.89 279.646C148.339 279.407 147.902 279.062 147.578 278.613C147.254 278.159 147.092 277.611 147.092 276.968C147.092 276.403 147.212 275.945 147.453 275.595C147.694 275.239 148.015 274.961 148.418 274.759C148.82 274.558 149.265 274.408 149.751 274.31C150.241 274.207 150.734 274.125 151.229 274.066C151.877 273.989 152.403 273.931 152.805 273.892C153.212 273.85 153.509 273.779 153.694 273.68C153.883 273.582 153.978 273.411 153.978 273.167V273.115C153.978 272.481 153.791 271.99 153.416 271.639C153.046 271.287 152.484 271.112 151.729 271.112C150.947 271.112 150.334 271.27 149.889 271.587C149.445 271.904 149.133 272.242 148.952 272.602L147.397 272.088C147.675 271.489 148.045 271.022 148.508 270.687C148.975 270.349 149.485 270.114 150.035 269.981C150.591 269.845 151.137 269.776 151.674 269.776C152.016 269.776 152.41 269.814 152.854 269.892C153.303 269.964 153.735 270.116 154.152 270.347C154.573 270.579 154.923 270.928 155.2 271.395C155.478 271.861 155.617 272.486 155.617 273.269V279.769H153.978V278.433H153.895C153.784 278.646 153.599 278.876 153.34 279.12C153.081 279.364 152.736 279.571 152.305 279.743C151.875 279.914 151.35 280 150.729 280ZM150.979 278.638C151.627 278.638 152.173 278.521 152.618 278.285C153.067 278.05 153.405 277.746 153.631 277.373C153.863 277.001 153.978 276.609 153.978 276.198V274.811C153.909 274.888 153.756 274.958 153.52 275.022C153.289 275.083 153.02 275.136 152.715 275.183C152.414 275.226 152.12 275.265 151.833 275.299C151.551 275.329 151.322 275.354 151.146 275.376C150.72 275.427 150.322 275.511 149.952 275.626C149.586 275.738 149.29 275.907 149.063 276.134C148.841 276.356 148.73 276.66 148.73 277.046C148.73 277.572 148.941 277.97 149.362 278.24C149.788 278.505 150.327 278.638 150.979 278.638ZM160.245 273.835V279.769H158.607V269.904H160.19V271.445H160.329C160.579 270.944 160.958 270.542 161.467 270.238C161.976 269.93 162.633 269.776 163.439 269.776C164.161 269.776 164.792 269.913 165.334 270.187C165.875 270.457 166.297 270.867 166.597 271.42C166.898 271.968 167.049 272.661 167.049 273.5V279.769H165.41V273.604C165.41 272.829 165.193 272.225 164.758 271.792C164.323 271.356 163.726 271.138 162.967 271.138C162.444 271.138 161.976 271.243 161.564 271.452C161.157 271.662 160.835 271.968 160.599 272.37C160.363 272.773 160.245 273.261 160.245 273.835ZM174.68 269.904V271.188H169.154V269.904H174.68ZM170.764 267.541H172.403V276.943C172.403 277.371 172.47 277.692 172.604 277.906C172.743 278.116 172.919 278.258 173.132 278.33C173.349 278.399 173.578 278.433 173.819 278.433C173.999 278.433 174.147 278.424 174.263 278.407C174.379 278.386 174.471 278.369 174.541 278.356L174.874 279.717C174.763 279.756 174.608 279.794 174.409 279.833C174.21 279.875 173.958 279.897 173.652 279.897C173.189 279.897 172.736 279.805 172.292 279.621C171.852 279.437 171.486 279.156 171.195 278.779C170.908 278.403 170.764 277.928 170.764 277.354V267.541ZM194.138 266.617V279.769H192.472L184.725 269.442H184.586V279.769H182.864V266.617H184.53L192.306 276.968H192.444V266.617H194.138ZM201.832 279.974C200.805 279.974 199.918 279.764 199.173 279.344C198.432 278.92 197.86 278.33 197.458 277.572C197.06 276.81 196.862 275.924 196.862 274.914C196.862 273.903 197.06 273.012 197.458 272.242C197.86 271.467 198.421 270.864 199.138 270.431C199.86 269.994 200.703 269.776 201.665 269.776C202.221 269.776 202.769 269.862 203.311 270.033C203.852 270.204 204.345 270.482 204.789 270.867C205.233 271.249 205.587 271.754 205.851 272.383C206.115 273.012 206.247 273.787 206.247 274.708V275.351H198.028V274.04H204.58C204.58 273.483 204.46 272.987 204.22 272.55C203.984 272.113 203.646 271.769 203.206 271.517C202.771 271.263 202.258 271.138 201.665 271.138C201.013 271.138 200.448 271.287 199.972 271.587C199.5 271.882 199.136 272.268 198.881 272.743C198.627 273.218 198.5 273.727 198.5 274.271V275.144C198.5 275.889 198.639 276.521 198.916 277.04C199.199 277.553 199.59 277.945 200.089 278.214C200.589 278.48 201.17 278.613 201.832 278.613C202.262 278.613 202.651 278.557 202.998 278.446C203.35 278.33 203.653 278.159 203.908 277.932C204.162 277.701 204.359 277.414 204.497 277.071L206.081 277.483C205.914 277.979 205.634 278.416 205.24 278.792C204.847 279.165 204.361 279.456 203.783 279.665C203.204 279.872 202.554 279.974 201.832 279.974ZM215.459 275.736V269.904H217.098V279.769H215.459V278.098H215.348C215.098 278.599 214.71 279.026 214.182 279.377C213.654 279.723 212.987 279.897 212.182 279.897C211.516 279.897 210.924 279.762 210.405 279.493C209.887 279.219 209.479 278.807 209.183 278.259C208.887 277.707 208.739 277.012 208.739 276.172V269.904H210.378V276.069C210.378 276.789 210.595 277.362 211.03 277.79C211.469 278.219 212.029 278.433 212.71 278.433C213.117 278.433 213.532 278.336 213.952 278.144C214.378 277.951 214.735 277.655 215.021 277.258C215.314 276.86 215.459 276.352 215.459 275.736ZM220.098 279.769V269.904H221.681V271.395H221.792C221.987 270.906 222.338 270.51 222.847 270.206C223.356 269.903 223.93 269.75 224.569 269.75C224.689 269.75 224.84 269.753 225.02 269.757C225.201 269.761 225.337 269.767 225.429 269.776V271.317C225.375 271.304 225.246 271.285 225.048 271.259C224.854 271.229 224.647 271.215 224.43 271.215C223.911 271.215 223.449 271.315 223.041 271.517C222.639 271.713 222.32 271.987 222.083 272.339C221.852 272.685 221.736 273.081 221.736 273.527V279.769H220.098ZM230.509 280C229.834 280 229.221 279.882 228.669 279.646C228.119 279.407 227.681 279.062 227.358 278.613C227.034 278.159 226.872 277.611 226.872 276.968C226.872 276.403 226.992 275.945 227.233 275.595C227.473 275.239 227.795 274.961 228.197 274.759C228.6 274.558 229.045 274.408 229.531 274.31C230.021 274.207 230.514 274.125 231.009 274.066C231.657 273.989 232.182 273.931 232.585 273.892C232.993 273.85 233.289 273.779 233.474 273.68C233.663 273.582 233.758 273.411 233.758 273.167V273.115C233.758 272.481 233.571 271.99 233.196 271.639C232.826 271.287 232.264 271.112 231.509 271.112C230.727 271.112 230.114 271.27 229.669 271.587C229.225 271.904 228.913 272.242 228.732 272.602L227.177 272.088C227.454 271.489 227.825 271.022 228.288 270.687C228.755 270.349 229.265 270.114 229.815 269.981C230.37 269.845 230.917 269.776 231.453 269.776C231.796 269.776 232.189 269.814 232.634 269.892C233.083 269.964 233.516 270.116 233.932 270.347C234.353 270.579 234.702 270.928 234.98 271.395C235.257 271.861 235.396 272.486 235.396 273.269V279.769H233.758V278.433H233.675C233.564 278.646 233.379 278.876 233.12 279.12C232.861 279.364 232.516 279.571 232.086 279.743C231.655 279.914 231.13 280 230.509 280ZM230.759 278.638C231.407 278.638 231.954 278.521 232.397 278.285C232.847 278.05 233.184 277.746 233.411 277.373C233.643 277.001 233.758 276.609 233.758 276.198V274.811C233.689 274.888 233.536 274.958 233.301 275.022C233.069 275.083 232.8 275.136 232.495 275.183C232.194 275.226 231.9 275.265 231.614 275.299C231.331 275.329 231.101 275.354 230.926 275.376C230.5 275.427 230.102 275.511 229.732 275.626C229.366 275.738 229.07 275.907 228.843 276.134C228.622 276.356 228.51 276.66 228.51 277.046C228.51 277.572 228.72 277.97 229.142 278.24C229.568 278.505 230.106 278.638 230.759 278.638ZM240.025 266.617V279.769H238.387V266.617H240.025ZM250.467 266.617V279.769H248.746V266.617H250.467ZM255.336 273.835V279.769H253.698V269.904H255.28V271.445H255.419C255.669 270.944 256.049 270.542 256.558 270.238C257.067 269.93 257.724 269.776 258.529 269.776C259.252 269.776 259.883 269.913 260.425 270.187C260.966 270.457 261.387 270.867 261.687 271.42C261.989 271.968 262.139 272.661 262.139 273.5V279.769H260.501V273.604C260.501 272.829 260.283 272.225 259.848 271.792C259.413 271.356 258.817 271.138 258.057 271.138C257.534 271.138 257.067 271.243 256.655 271.452C256.248 271.662 255.926 271.968 255.69 272.37C255.454 272.773 255.336 273.261 255.336 273.835ZM269.77 269.904V271.188H264.244V269.904H269.77ZM265.855 267.541H267.493V276.943C267.493 277.371 267.56 277.692 267.695 277.906C267.834 278.116 268.01 278.258 268.223 278.33C268.44 278.399 268.668 278.433 268.91 278.433C269.09 278.433 269.238 278.424 269.354 278.407C269.47 278.386 269.562 278.369 269.631 278.356L269.964 279.717C269.854 279.756 269.699 279.794 269.499 279.833C269.301 279.875 269.049 279.897 268.743 279.897C268.28 279.897 267.827 279.805 267.382 279.621C266.942 279.437 266.577 279.156 266.285 278.779C265.998 278.403 265.855 277.928 265.855 277.354V267.541ZM276.591 279.974C275.563 279.974 274.677 279.764 273.932 279.344C273.192 278.92 272.62 278.33 272.217 277.572C271.82 276.81 271.62 275.924 271.62 274.914C271.62 273.903 271.82 273.012 272.217 272.242C272.62 271.467 273.18 270.864 273.898 270.431C274.619 269.994 275.462 269.776 276.424 269.776C276.98 269.776 277.528 269.862 278.069 270.033C278.611 270.204 279.104 270.482 279.548 270.867C279.992 271.249 280.347 271.754 280.611 272.383C280.874 273.012 281.006 273.787 281.006 274.708V275.351H272.786V274.04H279.34C279.34 273.483 279.22 272.987 278.978 272.55C278.743 272.113 278.405 271.769 277.966 271.517C277.53 271.263 277.017 271.138 276.424 271.138C275.771 271.138 275.207 271.287 274.73 271.587C274.258 271.882 273.895 272.268 273.641 272.743C273.385 273.218 273.258 273.727 273.258 274.271V275.144C273.258 275.889 273.397 276.521 273.675 277.04C273.957 277.553 274.348 277.945 274.849 278.214C275.348 278.48 275.929 278.613 276.591 278.613C277.022 278.613 277.41 278.557 277.757 278.446C278.109 278.33 278.411 278.159 278.667 277.932C278.921 277.701 279.118 277.414 279.257 277.071L280.839 277.483C280.672 277.979 280.393 278.416 280 278.792C279.606 279.165 279.12 279.456 278.541 279.665C277.963 279.872 277.313 279.974 276.591 279.974ZM283.498 279.769V269.904H285.081V271.395H285.192C285.387 270.906 285.738 270.51 286.248 270.206C286.756 269.903 287.331 269.75 287.969 269.75C288.089 269.75 288.24 269.753 288.421 269.757C288.6 269.761 288.737 269.767 288.83 269.776V271.317C288.774 271.304 288.647 271.285 288.448 271.259C288.253 271.229 288.047 271.215 287.83 271.215C287.312 271.215 286.849 271.315 286.441 271.517C286.038 271.713 285.72 271.987 285.483 272.339C285.253 272.685 285.136 273.081 285.136 273.527V279.769H283.498ZM296.188 269.904V271.188H290.44V269.904H296.188ZM292.162 279.769V268.543C292.162 267.978 292.305 267.506 292.592 267.13C292.88 266.753 293.252 266.471 293.71 266.282C294.168 266.094 294.652 266 295.161 266C295.564 266 295.892 266.03 296.146 266.09C296.401 266.149 296.591 266.205 296.716 266.257L296.244 267.567C296.161 267.541 296.045 267.509 295.897 267.47C295.753 267.432 295.564 267.412 295.327 267.412C294.786 267.412 294.395 267.539 294.154 267.791C293.919 268.044 293.8 268.414 293.8 268.903V279.769H292.162ZM301.317 280C300.641 280 300.028 279.882 299.477 279.646C298.926 279.407 298.489 279.062 298.165 278.613C297.841 278.159 297.679 277.611 297.679 276.968C297.679 276.403 297.799 275.945 298.04 275.595C298.281 275.239 298.603 274.961 299.005 274.759C299.408 274.558 299.852 274.408 300.337 274.31C300.828 274.207 301.322 274.125 301.816 274.066C302.464 273.989 302.989 273.931 303.392 273.892C303.8 273.85 304.096 273.779 304.28 273.68C304.471 273.582 304.566 273.411 304.566 273.167V273.115C304.566 272.481 304.378 271.99 304.003 271.639C303.633 271.287 303.07 271.112 302.317 271.112C301.534 271.112 300.921 271.27 300.476 271.587C300.033 271.904 299.72 272.242 299.54 272.602L297.985 272.088C298.262 271.489 298.633 271.022 299.095 270.687C299.562 270.349 300.072 270.114 300.623 269.981C301.178 269.845 301.723 269.776 302.261 269.776C302.603 269.776 302.997 269.814 303.441 269.892C303.889 269.964 304.323 270.116 304.739 270.347C305.16 270.579 305.51 270.928 305.788 271.395C306.065 271.861 306.204 272.486 306.204 273.269V279.769H304.566V278.433H304.482C304.371 278.646 304.186 278.876 303.927 279.12C303.668 279.364 303.323 279.571 302.893 279.743C302.462 279.914 301.937 280 301.317 280ZM301.567 278.638C302.214 278.638 302.761 278.521 303.205 278.285C303.654 278.05 303.992 277.746 304.219 277.373C304.45 277.001 304.566 276.609 304.566 276.198V274.811C304.496 274.888 304.343 274.958 304.107 275.022C303.876 275.083 303.608 275.136 303.302 275.183C303.001 275.226 302.708 275.265 302.42 275.299C302.138 275.329 301.909 275.354 301.733 275.376C301.307 275.427 300.909 275.511 300.539 275.626C300.173 275.738 299.877 275.907 299.65 276.134C299.428 276.356 299.317 276.66 299.317 277.046C299.317 277.572 299.528 277.97 299.949 278.24C300.375 278.505 300.914 278.638 301.567 278.638ZM313.526 279.974C312.526 279.974 311.666 279.756 310.944 279.319C310.221 278.882 309.666 278.281 309.277 277.514C308.889 276.748 308.695 275.872 308.695 274.888C308.695 273.886 308.893 273.002 309.292 272.235C309.694 271.465 310.254 270.864 310.971 270.431C311.693 269.994 312.536 269.776 313.499 269.776C314.248 269.776 314.924 269.904 315.525 270.161C316.127 270.418 316.62 270.778 317.004 271.24C317.388 271.703 317.626 272.242 317.719 272.858H316.081C315.956 272.409 315.678 272.01 315.247 271.664C314.822 271.313 314.248 271.138 313.526 271.138C312.888 271.138 312.328 271.291 311.846 271.6C311.37 271.904 310.997 272.334 310.729 272.89C310.465 273.443 310.333 274.092 310.333 274.836C310.333 275.598 310.462 276.262 310.722 276.827C310.986 277.392 311.355 277.831 311.832 278.144C312.313 278.457 312.878 278.613 313.526 278.613C313.952 278.613 314.338 278.544 314.685 278.407C315.032 278.27 315.327 278.073 315.567 277.816C315.807 277.56 315.979 277.251 316.081 276.891H317.719C317.626 277.474 317.398 277.998 317.032 278.465C316.671 278.928 316.192 279.296 315.594 279.57C315.002 279.839 314.313 279.974 313.526 279.974ZM324.585 279.974C323.558 279.974 322.671 279.764 321.926 279.344C321.185 278.92 320.614 278.33 320.211 277.572C319.813 276.81 319.615 275.924 319.615 274.914C319.615 273.903 319.813 273.012 320.211 272.242C320.614 271.467 321.174 270.864 321.891 270.431C322.613 269.994 323.456 269.776 324.418 269.776C324.974 269.776 325.522 269.862 326.064 270.033C326.605 270.204 327.098 270.482 327.542 270.867C327.986 271.249 328.34 271.754 328.604 272.383C328.868 273.012 329 273.787 329 274.708V275.351H320.781V274.04H327.333C327.333 273.483 327.213 272.987 326.973 272.55C326.737 272.113 326.399 271.769 325.959 271.517C325.524 271.263 325.01 271.138 324.418 271.138C323.766 271.138 323.201 271.287 322.724 271.587C322.252 271.882 321.889 272.268 321.634 272.743C321.38 273.218 321.253 273.727 321.253 274.271V275.144C321.253 275.889 321.392 276.521 321.669 277.04C321.952 277.553 322.343 277.945 322.842 278.214C323.343 278.48 323.923 278.613 324.585 278.613C325.015 278.613 325.404 278.557 325.751 278.446C326.103 278.33 326.406 278.159 326.66 277.932C326.915 277.701 327.112 277.414 327.25 277.071L328.833 277.483C328.667 277.979 328.387 278.416 327.993 278.792C327.6 279.165 327.114 279.456 326.536 279.665C325.957 279.872 325.306 279.974 324.585 279.974Z" fill="#F8F8F8"/>
<mask id="mask2_2010_1509" style="mask-type:luminance" maskUnits="userSpaceOnUse" x="171" y="363" width="79" height="25">
<path d="M171 387.048H249.662V363.162H171V387.048Z" fill="white"/>
</mask>
<g mask="url(#mask2_2010_1509)">
<path d="M189.12 367.399C189.226 367.355 189.337 367.317 189.452 367.283L184.126 367.662L183.951 368.087L183.805 368.446L183.342 369.603L183.241 369.858C183.321 369.81 183.414 369.764 183.52 369.721C184.219 369.431 185.193 369.364 185.695 369.573C185.736 369.59 185.773 369.609 185.805 369.628C186.116 369.817 186.019 370.115 185.577 370.368C185.509 370.405 185.441 370.437 185.377 370.467C185.35 370.479 185.323 370.491 185.295 370.503L185.292 370.505C185.141 370.568 184.984 370.626 184.824 370.68C184.824 370.68 184.822 370.68 184.821 370.68C184.632 370.74 184.472 370.78 184.38 370.805C182.895 371.2 181.203 371.216 180.241 370.799C180.206 370.784 180.173 370.768 180.141 370.752C179.68 370.524 179.495 370.222 179.564 369.899C179.564 369.899 179.564 369.898 179.564 369.898L179.656 369.666L179.659 369.657L180.377 367.885L176.052 368.107L175.469 368.133C174.696 368.144 173.981 368.05 173.456 367.848C173.419 367.834 173.383 367.819 173.348 367.804C172.387 367.386 172.458 366.706 173.406 366.138C173.464 366.103 173.56 366.042 173.703 365.97C173.704 365.97 173.705 365.969 173.706 365.969C173.833 365.909 173.971 365.851 174.121 365.794L174.124 365.793C174.153 365.783 174.182 365.773 174.212 365.763C174.283 365.74 174.36 365.715 174.447 365.689C175.049 365.529 175.762 365.507 176.215 365.639C176.263 365.653 176.308 365.668 176.349 365.686C176.85 365.894 176.685 366.278 175.982 366.543C175.876 366.583 175.764 366.618 175.648 366.648L176.261 366.62L179.068 366.484L179.945 366.438L180.992 366.38L181.168 365.966L181.316 365.621L181.894 364.295C181.813 364.339 181.719 364.381 181.614 364.422C180.91 364.687 179.933 364.739 179.434 364.538C179.392 364.521 179.355 364.503 179.323 364.484C179.015 364.304 179.115 364.032 179.561 363.808C179.63 363.776 179.7 363.748 179.764 363.722C179.791 363.71 179.819 363.7 179.846 363.689L179.85 363.688C180.002 363.633 180.159 363.582 180.32 363.536C180.321 363.536 180.322 363.535 180.323 363.535C180.514 363.483 180.675 363.448 180.766 363.427C182.259 363.083 183.952 363.065 184.905 363.431C184.94 363.444 184.973 363.458 185.005 363.472C185.461 363.672 185.642 363.944 185.569 364.241L185.569 364.242L185.47 364.465L184.741 366.158L189.053 365.856L189.075 365.855L189.63 365.812H189.633C190.401 365.776 191.112 365.84 191.633 366.014C191.669 366.026 191.705 366.038 191.74 366.052C192.693 366.417 192.621 367.097 191.682 367.715C191.624 367.753 191.529 367.82 191.387 367.899C191.386 367.9 191.385 367.9 191.385 367.9C191.259 367.968 191.121 368.034 190.973 368.098L190.969 368.099C190.941 368.111 190.912 368.122 190.882 368.134C190.812 368.161 190.736 368.19 190.649 368.219C190.051 368.409 189.343 368.456 188.891 368.333C188.843 368.32 188.799 368.306 188.757 368.289C188.257 368.088 188.42 367.69 189.12 367.399L189.12 367.399Z" fill="white"/>
<path d="M194.078 368.153V371.766C194.078 371.801 194.059 371.834 194.029 371.847L183.804 376.347C183.752 376.37 183.695 376.328 183.695 376.266V372.654C183.695 372.618 183.714 372.586 183.744 372.572L193.969 368.072C194.021 368.049 194.078 368.092 194.078 368.153Z" fill="white"/>
<path d="M194.079 373.223V376.835C194.079 376.871 194.059 376.903 194.028 376.917L183.803 381.416C183.751 381.44 183.694 381.397 183.694 381.335V377.723C183.694 377.687 183.714 377.655 183.744 377.642L193.969 373.142C194.021 373.119 194.079 373.161 194.079 373.223Z" fill="white"/>
<path d="M194.078 378.3V381.912C194.078 381.948 194.059 381.98 194.029 381.993L183.804 386.494C183.752 386.517 183.695 386.474 183.695 386.412V382.8C183.695 382.765 183.714 382.732 183.744 382.719L193.969 378.219C194.021 378.196 194.078 378.238 194.078 378.3Z" fill="white"/>
<path d="M171 367.724L182.541 372.807V387.034C182.541 387.044 182.532 387.051 182.523 387.047L179.088 385.536C179.088 382.885 179.089 380.235 179.089 377.584C179.089 375.468 177.84 373.597 176.003 372.965C175.986 372.959 175.969 372.953 175.951 372.946C174.64 372.495 173.308 373.572 173.308 375.082V382.993L171.008 381.982C171.003 381.979 171 381.975 171 381.969V367.724Z" fill="white"/>
<path d="M231.49 381.078L233.825 369.399H236.94L236.406 372.113H236.539C236.97 371.194 237.481 370.467 238.074 369.933C238.667 369.399 239.408 369.132 240.298 369.132C241.188 369.132 241.84 369.399 242.3 369.933C242.76 370.452 242.997 371.179 243.012 372.113H243.123C243.553 371.238 244.072 370.526 244.68 369.978C245.288 369.414 246.059 369.132 246.993 369.132C247.853 369.132 248.506 369.399 248.951 369.933C249.41 370.452 249.64 371.171 249.64 372.091C249.64 372.432 249.61 372.773 249.551 373.114C249.507 373.441 249.448 373.774 249.373 374.115L248.506 378.477C248.494 378.534 248.537 378.587 248.595 378.587H249.662L249.173 381.078H247.149C246.556 381.078 246.096 380.93 245.77 380.634C245.444 380.322 245.281 379.907 245.281 379.388C245.281 379.254 245.289 379.136 245.304 379.032C245.318 378.913 245.334 378.824 245.348 378.765L246.26 374.138C246.304 373.93 246.341 373.723 246.371 373.515C246.416 373.307 246.438 373.107 246.438 372.914C246.438 372.558 246.356 372.277 246.194 372.069C246.045 371.846 245.801 371.735 245.459 371.735C245.118 371.735 244.792 371.839 244.48 372.047C244.169 372.239 243.888 372.484 243.635 372.781C243.383 373.077 243.161 373.433 242.968 373.849C242.775 374.264 242.642 374.672 242.568 375.072L241.367 381.078H238.253L239.632 374.138C239.676 373.93 239.713 373.723 239.743 373.515C239.773 373.308 239.787 373.115 239.787 372.937C239.787 372.566 239.706 372.277 239.543 372.069C239.394 371.847 239.127 371.736 238.742 371.736C238.356 371.736 238.008 371.839 237.696 372.047C237.4 372.24 237.126 372.492 236.873 372.803C236.34 373.456 235.984 374.212 235.806 375.072L234.604 381.079H231.49L231.49 381.078ZM226.583 371.513C225.915 371.513 225.345 371.735 224.87 372.18C224.41 372.61 224.114 373.203 223.98 373.96L223.906 374.387C223.898 374.43 223.933 374.469 223.978 374.467C224.768 374.422 225.414 374.349 225.915 374.249C226.449 374.145 226.864 374.019 227.161 373.871C227.458 373.707 227.658 373.53 227.761 373.337C227.865 373.144 227.917 372.929 227.917 372.692C227.917 372.44 227.872 372.239 227.784 372.091C227.694 371.928 227.583 371.81 227.45 371.735C227.316 371.646 227.168 371.587 227.005 371.557C226.857 371.528 226.715 371.513 226.583 371.513ZM225.359 381.345C223.698 381.345 222.46 380.9 221.645 380.011C220.829 379.106 220.422 377.875 220.422 376.318C220.422 375.384 220.57 374.487 220.867 373.626C221.163 372.751 221.586 371.987 222.134 371.335C222.683 370.668 223.35 370.133 224.136 369.733C224.922 369.333 225.797 369.133 226.761 369.133C227.205 369.133 227.673 369.184 228.162 369.289C228.651 369.392 229.096 369.57 229.497 369.822C229.912 370.06 230.253 370.386 230.52 370.801C230.801 371.216 230.942 371.743 230.942 372.381C230.942 373.018 230.801 373.537 230.52 374.027C230.238 374.502 229.801 374.917 229.208 375.272C228.614 375.613 227.851 375.888 226.917 376.095C226.011 376.283 224.931 376.4 223.677 376.447C223.606 376.45 223.547 376.502 223.534 376.571C223.52 376.649 223.514 376.713 223.514 376.763V376.963C223.514 377.527 223.662 377.979 223.959 378.32C224.27 378.661 224.811 378.832 225.582 378.832C226.087 378.832 226.553 378.728 226.983 378.52C227.428 378.297 227.91 377.86 228.429 377.208L230.342 378.72C229.615 379.684 228.852 380.366 228.051 380.767C227.266 381.152 226.368 381.345 225.36 381.345L225.359 381.345ZM216.069 381.078C214.245 381.078 213.333 380.344 213.333 378.876C213.333 378.757 213.34 378.609 213.355 378.431C213.37 378.253 213.393 378.083 213.422 377.92L214.624 371.891H212.977L213.467 369.399H214.267C214.742 369.399 215.061 369.303 215.224 369.11C215.387 368.917 215.506 368.621 215.58 368.22L215.98 366.24H218.872L218.249 369.399H220.585L220.073 371.89H217.738L216.445 378.377C216.423 378.485 216.506 378.586 216.617 378.586H218.516L218.027 381.078H216.07L216.069 381.078ZM206.301 381.345C205.664 381.345 205.063 381.256 204.5 381.078C203.951 380.886 203.469 380.589 203.054 380.188C202.639 379.773 202.313 379.247 202.075 378.609C201.838 377.971 201.719 377.2 201.719 376.296C201.719 375.258 201.875 374.301 202.186 373.426C202.498 372.551 202.927 371.795 203.476 371.157C204.04 370.519 204.699 370.022 205.456 369.667C206.212 369.31 207.035 369.133 207.925 369.133C208.473 369.133 208.985 369.207 209.459 369.355C209.948 369.489 210.372 369.689 210.727 369.956C211.098 370.223 211.402 370.542 211.639 370.912C211.876 371.283 212.032 371.698 212.106 372.158L209.481 373.159C209.348 372.7 209.162 372.336 208.925 372.069C208.703 371.787 208.31 371.647 207.746 371.647C206.456 371.647 205.648 372.462 205.322 374.094L204.921 376.074C204.847 376.415 204.81 376.726 204.81 377.008C204.81 377.557 204.944 378.001 205.21 378.343C205.492 378.669 205.945 378.832 206.567 378.832C206.864 378.832 207.123 378.787 207.346 378.698C207.568 378.609 207.761 378.484 207.924 378.32C208.102 378.157 208.265 377.964 208.413 377.742C208.561 377.519 208.717 377.267 208.88 376.985L211.26 378.098C210.741 379.18 210.059 379.996 209.214 380.545C208.384 381.078 207.412 381.346 206.3 381.346L206.301 381.345Z" fill="white"/>
</g>
</g>
<defs>
<linearGradient id="paint0_linear_2010_1509" x1="210" y1="0" x2="210" y2="420" gradientUnits="userSpaceOnUse">
<stop offset="1" stop-color="white"/>
</linearGradient>
<clipPath id="clip0_2010_1509">
<rect width="420" height="420" fill="white"/>
</clipPath>
</defs>
</svg>
