<svg width="19" height="30" viewBox="0 0 19 30" fill="none" xmlns="http://www.w3.org/2000/svg">
<path d="M15.3462 0H3.65385C1.63692 0 0 1.52727 0 3.40909V26.5909C0 28.4727 1.63692 30 3.65385 30H15.3462C17.3631 30 19 28.4727 19 26.5909V3.40909C19 1.52727 17.3631 0 15.3462 0ZM9.5 28.6364C8.28692 28.6364 7.30769 27.7227 7.30769 26.5909C7.30769 25.4591 8.28692 24.5455 9.5 24.5455C10.7131 24.5455 11.6923 25.4591 11.6923 26.5909C11.6923 27.7227 10.7131 28.6364 9.5 28.6364ZM16.0769 23.1818H2.92308V4.09091H16.0769V23.1818Z" fill="white"/>
</svg>
