<svg width="193" height="83" viewBox="0 0 193 83" fill="none" xmlns="http://www.w3.org/2000/svg">
<g clip-path="url(#clip0_89_566)">
<path d="M25.1192 65.193C21.627 75.8941 11.6373 83.1357 0.368164 83.1357L25.4462 10.7216C27.6686 4.3045 33.7197 0 40.5184 0C47.3196 0 53.3724 4.3077 55.5928 10.7282L76.5678 71.3813C78.5582 77.1367 74.2783 83.1357 68.1817 83.1357C64.339 83.1357 60.933 80.6652 59.7442 77.0153L40.9476 19.3074C40.8875 19.1228 40.7153 18.9978 40.5209 18.9978C40.3267 18.9978 40.1545 19.1226 40.0943 19.3071L25.1192 65.193Z" fill="#FAFAFA"/>
<path d="M151.654 0C156.501 0 160.43 3.92412 160.43 8.76478V73.1535C160.43 78.6662 155.955 83.1357 150.435 83.1357C147.156 83.1357 144.085 81.5289 142.219 78.8369L109.034 30.983C108.96 30.875 108.837 30.8105 108.705 30.8105C108.483 30.8105 108.304 30.9898 108.304 31.2109V74.3299C108.304 79.1938 104.357 83.1357 99.4875 83.1357C94.6183 83.1357 90.6714 79.193 90.6714 74.3299V10.1282C90.6714 4.53455 95.2113 0 100.812 0C104.151 0 107.276 1.64158 109.168 4.3894L142.002 52.0766C142.091 52.2068 142.239 52.2846 142.398 52.2846C142.663 52.2846 142.878 52.0698 142.878 51.8048V8.76478C142.878 3.92412 146.807 0 151.654 0Z" fill="#FAFAFA"/>
<path d="M183.815 0C188.684 0 192.632 3.94232 192.632 8.8054V74.3299C192.632 79.1938 188.684 83.1357 183.815 83.1357C178.946 83.1357 174.999 79.193 174.999 74.3299V8.8054C174.999 3.94232 178.946 0 183.815 0Z" fill="#FAFAFA"/>
</g>
<defs>
<clipPath id="clip0_89_566">
<rect width="193" height="83" fill="white"/>
</clipPath>
</defs>
</svg>
