<svg width="190" height="62" viewBox="0 0 190 62" fill="none" xmlns="http://www.w3.org/2000/svg">
<g clip-path="url(#clip0_122_582)">
<path fill-rule="evenodd" clip-rule="evenodd" d="M178.193 1.9685C181.634 1.9685 184.597 4.75702 184.597 8.31518C184.597 11.7953 181.617 14.7288 178.17 14.7288C174.646 14.7176 171.683 11.7841 171.688 8.29845C171.688 4.73471 174.657 1.95177 178.187 1.96292L178.193 1.9685Z" fill="white"/>
<path fill-rule="evenodd" clip-rule="evenodd" d="M132.669 14.751L172.939 14.8793C168.642 11.5442 168.487 5.66598 173.028 2.11341L143.782 2.07437C140.735 1.91821 138.311 2.76592 137.528 4.62308L132.669 14.751Z" fill="white"/>
<path fill-rule="evenodd" clip-rule="evenodd" d="M131.557 16.6865L183.335 16.7534C187.799 16.5248 190.14 18.6943 188.65 22.4811L185.036 29.2906L176.831 29.2014L182.474 18.2202L169.02 18.2035C165.896 18.2035 164.173 19.2798 162.922 21.8341L159.309 29.2572L132.096 29.2237C128.111 28.9058 127.099 25.5763 128.906 22.4811L131.557 16.6865Z" fill="white"/>
<path fill-rule="evenodd" clip-rule="evenodd" d="M118.082 44.365L124.202 31.5991L157.98 31.6437L152.254 43.3221L167.347 43.3388C168.831 43.1101 170.004 42.4911 171.183 40.4778L175.569 31.7385L184.336 31.6716L178.61 42.9596C177.82 44.1196 176.108 44.5825 173.601 44.4152L118.076 44.3538L118.082 44.365Z" fill="white"/>
<path fill-rule="evenodd" clip-rule="evenodd" d="M179.66 19.921L169.626 39.5522C168.909 40.7903 168.047 41.3313 167.036 41.4094L155.228 41.3982L164.79 22.2243C165.574 20.6739 166.908 19.7481 169.332 19.9043L179.655 19.921H179.66Z" fill="white"/>
<path d="M35.8287 0.635742H7.67162C6.9934 0.635742 6.29295 0.764014 5.57582 1.02056C4.85869 1.2771 4.17492 1.65076 3.53005 2.13597C2.87963 2.62675 2.31816 3.21234 1.84007 3.89274C1.35643 4.57314 1.02288 5.32046 0.828309 6.12913L0.0500279 9.38612C-0.0611551 9.8546 0.016673 10.2394 0.283512 10.535C0.550351 10.8306 0.900578 10.9812 1.32307 10.9812H10.5513C11.0627 10.9812 11.463 11.154 11.7632 11.4942C12.0633 11.8344 12.1412 12.3029 12.0022 12.8997L4.69748 43.5455C4.58629 44.014 4.66968 44.3765 4.94764 44.633C5.17556 44.9286 5.52023 45.0792 5.9872 45.0792H14.8318C15.2988 45.0792 15.7157 44.9286 16.0826 44.633C16.4829 44.3765 16.7386 44.014 16.8498 43.5455L23.8209 14.3051C24.0266 13.4518 23.8376 12.6877 23.2539 12.0073C22.6758 11.3269 21.9142 10.9867 20.9858 10.9867H31.6816L32.8101 6.26298C33.3104 4.16601 34.3444 2.25866 35.8343 0.646896L35.8287 0.635742Z" fill="white"/>
<path d="M59.2492 35.6876H43.628C43.0331 35.6876 42.6162 35.4757 42.3771 35.0519C42.1381 34.628 42.077 34.1818 42.1881 33.7134L42.9053 30.7129C43.111 29.8596 42.9497 29.0956 42.4383 28.4152C41.9213 27.7348 41.1764 27.3946 40.198 27.3946H58.3764C58.8433 27.3946 59.2714 27.2328 59.6661 26.915C60.0608 26.5971 60.311 26.2011 60.4221 25.7326L61.7897 19.9883C61.9009 19.5198 61.8342 19.1294 61.5951 18.8059C61.3561 18.488 61.0003 18.3263 60.5333 18.3263H47.764C47.1302 18.3263 46.7022 18.1144 46.4854 17.6905C46.2686 17.2667 46.213 16.8205 46.3297 16.3465L46.969 13.6639C47.1747 12.8106 47.0302 12.0242 46.5465 11.2992C46.0629 10.5742 45.3124 10.2117 44.2895 10.2117H65.3753C67.3878 6.58662 70.1006 3.54714 73.4917 1.13228C73.7085 0.976118 73.942 0.842269 74.1588 0.697266H44.0727C42.5884 0.697266 41.1708 1.22151 39.8199 2.26442C38.4691 3.30732 37.6018 4.63466 37.2127 6.252L28.3069 43.6015C28.2069 44.0253 28.2736 44.399 28.5182 44.7169C28.7572 45.0348 29.0908 45.1965 29.5188 45.1965H63.2795C63.1906 45.1073 63.085 45.0292 62.996 44.9344C60.7335 42.5195 59.4882 39.4187 59.2436 35.6821L59.2492 35.6876Z" fill="white"/>
<path d="M79.896 45.966C73.8309 45.966 69.417 44.4992 66.6596 41.5601C63.9023 38.621 63.0907 34.3267 64.2303 28.6604C64.4638 27.5116 64.8863 25.6377 65.5033 23.0443C66.1315 20.4064 66.6096 18.4935 66.9376 17.3C68.4664 11.7676 71.3404 7.50112 75.5598 4.50067C79.7737 1.50022 84.877 0 90.8586 0C94.6333 0 97.8687 0.619052 100.565 1.85158C103.261 3.08968 105.201 4.87434 106.38 7.2167C107.558 9.55905 107.814 12.3253 107.136 15.5153C107.047 15.9002 106.83 16.218 106.491 16.4746C106.152 16.7311 105.796 16.8594 105.412 16.8594H96.3788C95.784 16.8594 95.3782 16.7423 95.1558 16.5081C94.9335 16.2738 94.7945 15.8388 94.7333 15.1974C94.6333 13.1116 94.0829 11.656 93.0712 10.825C92.0594 9.99406 90.5584 9.58136 88.5627 9.58136C83.7707 9.58136 80.6465 12.2639 79.2011 17.6235C78.8842 18.7723 78.445 20.5403 77.8724 22.9217C77.3054 25.303 76.894 27.1156 76.6439 28.3481C75.532 33.7132 77.3777 36.3902 82.1697 36.3902C84.1209 36.3902 85.822 35.9664 87.2785 35.1131C88.7295 34.2654 89.9803 32.8153 91.0198 30.7741C91.3423 30.1383 91.6814 29.6978 92.0316 29.4635C92.3818 29.2293 92.8543 29.1122 93.4547 29.1122H102.488C102.872 29.1122 103.167 29.2404 103.383 29.497C103.6 29.7535 103.661 30.0714 103.572 30.4562C102.727 33.6463 101.154 36.4181 98.8582 38.7549C96.5623 41.0972 93.7716 42.8819 90.4861 44.12C87.2007 45.3525 83.6706 45.9716 79.896 45.9716V45.966Z" fill="white"/>
<path d="M8.46087 54.404H5.8036V61.8772H4.36934V54.404H1.75098V53.2495H8.46087V54.404Z" fill="white"/>
<path d="M14.4815 57.9956H11.1127V60.7283H15.0819V61.8772H9.67285V53.2495H15.0374V54.404H11.1071V56.8411H14.476V57.9956H14.4815Z" fill="white"/>
<path d="M22.7811 59.0549L22.7922 59.0883C22.8089 59.9583 22.5254 60.6611 21.9472 61.1964C21.3691 61.7318 20.5852 61.9995 19.6013 61.9995C18.6173 61.9995 17.789 61.6593 17.1664 60.9845C16.5437 60.3097 16.2324 59.4397 16.2324 58.3856V56.746C16.2324 55.6919 16.5382 54.8275 17.1552 54.1471C17.7667 53.4667 18.5728 53.1265 19.5624 53.1265C20.5519 53.1265 21.3691 53.383 21.9528 53.9017C22.5365 54.4203 22.8145 55.1286 22.8033 56.0321L22.7922 56.0711H21.4024C21.4024 55.4911 21.2468 55.0505 20.9355 54.7438C20.6241 54.4371 20.1683 54.2865 19.5679 54.2865C18.9675 54.2865 18.5228 54.5207 18.1837 54.9836C17.8446 55.4465 17.6722 56.0321 17.6722 56.7404V58.3912C17.6722 59.1051 17.8446 59.6962 18.1892 60.1591C18.5339 60.622 19.0064 60.8562 19.6068 60.8562C20.2072 60.8562 20.6408 60.7001 20.9466 60.3934C21.2523 60.0866 21.4024 59.6405 21.4024 59.0604H22.7867L22.7811 59.0549Z" fill="white"/>
<path d="M31.0143 61.8772H29.58L25.772 55.6588L25.7331 55.6699V61.8772H24.2988V53.2495H25.7331L29.5467 59.4679L29.58 59.4568V53.2495H31.0143V61.8772Z" fill="white"/>
<path d="M39.7031 58.3412C39.7031 59.3953 39.3751 60.2709 38.7136 60.9624C38.052 61.654 37.1959 61.9997 36.1397 61.9997C35.0835 61.9997 34.2774 61.654 33.627 60.9624C32.9821 60.2709 32.6597 59.3953 32.6597 58.3412V56.7852C32.6597 55.7367 32.9821 54.8611 33.627 54.164C34.2718 53.4669 35.1113 53.1211 36.1397 53.1211C37.1681 53.1211 38.0465 53.4669 38.708 54.164C39.3696 54.8556 39.6976 55.7312 39.6976 56.7852V58.3412H39.7031ZM38.2688 56.7741C38.2688 56.0546 38.0798 55.4635 37.6963 55.0006C37.3127 54.5377 36.7957 54.309 36.1397 54.309C35.4837 54.309 35.0056 54.5432 34.6443 55.0006C34.2774 55.4635 34.0995 56.0546 34.0995 56.7741V58.3412C34.0995 59.0662 34.2829 59.663 34.6498 60.1259C35.0167 60.5888 35.5115 60.823 36.1453 60.823C36.779 60.823 37.3238 60.5943 37.7018 60.1314C38.0798 59.6685 38.2744 59.0718 38.2744 58.3412V56.7741H38.2688Z" fill="white"/>
<path d="M42.7888 60.7283H46.8191V61.8772H41.3545V53.2495H42.7888V60.7283Z" fill="white"/>
<path d="M54.7632 58.3412C54.7632 59.3953 54.4352 60.2709 53.7736 60.9624C53.1121 61.654 52.256 61.9998 51.1998 61.9998C50.1435 61.9998 49.3374 61.654 48.687 60.9624C48.0422 60.2709 47.7197 59.3953 47.7197 58.3412V56.7852C47.7197 55.7368 48.0422 54.8612 48.687 54.164C49.3319 53.4669 50.1713 53.1211 51.1998 53.1211C52.2282 53.1211 53.1065 53.4669 53.7681 54.164C54.4296 54.8556 54.7576 55.7312 54.7576 56.7852V58.3412H54.7632ZM53.3289 56.7741C53.3289 56.0546 53.1399 55.4635 52.7563 55.0006C52.3727 54.5377 51.8557 54.309 51.1998 54.309C50.5438 54.309 50.0657 54.5433 49.7043 55.0006C49.3374 55.4635 49.1595 56.0546 49.1595 56.7741V58.3412C49.1595 59.0662 49.343 59.663 49.7099 60.1259C50.0768 60.5888 50.5716 60.823 51.2053 60.823C51.8391 60.823 52.3839 60.5944 52.7619 60.1315C53.1399 59.6686 53.3345 59.0718 53.3345 58.3412V56.7741H53.3289ZM51.7001 50.7007H53.3233L53.3345 50.7341L51.7223 52.279H50.5716L51.7001 50.7007Z" fill="white"/>
<path d="M62.7847 60.7115C62.5512 61.0461 62.1732 61.3472 61.6562 61.6094C61.1392 61.8715 60.4665 62.0053 59.6494 62.0053C58.632 62.0053 57.7982 61.6763 57.1422 61.0182C56.4862 60.3601 56.1582 59.5124 56.1582 58.4639V56.6625C56.1582 55.6196 56.4751 54.7663 57.1088 54.1082C57.7426 53.4501 58.5598 53.1211 59.5548 53.1211C60.5499 53.1211 61.3338 53.3721 61.8952 53.8796C62.4567 54.3871 62.7236 55.0452 62.7124 55.8594L62.6958 55.8929H61.3282C61.3282 55.4077 61.1781 55.0173 60.8779 54.7217C60.5777 54.4261 60.1441 54.2755 59.5826 54.2755C58.9878 54.2755 58.5097 54.4986 58.1428 54.9448C57.7815 55.3909 57.598 55.9598 57.598 56.6458V58.4583C57.598 59.1555 57.787 59.7243 58.1706 60.1761C58.5486 60.6222 59.0434 60.8509 59.6549 60.8509C60.1163 60.8509 60.4777 60.8007 60.7501 60.6947C61.0225 60.5888 61.2226 60.4605 61.356 60.3155V58.5308H59.5548V57.4545H62.7903V60.7115H62.7847Z" fill="white"/>
<path d="M66.215 61.8772H64.7808V53.2495H66.215V61.8772Z" fill="white"/>
<path d="M74.5482 59.0549L74.5593 59.0883C74.576 59.9583 74.2925 60.6611 73.7143 61.1964C73.1362 61.7318 72.3523 61.9995 71.3684 61.9995C70.3844 61.9995 69.5561 61.6593 68.9334 60.9845C68.3108 60.3097 67.9995 59.4397 67.9995 58.3856V56.746C67.9995 55.6919 68.3053 54.8275 68.9223 54.1471C69.5338 53.4667 70.3399 53.1265 71.3294 53.1265C72.319 53.1265 73.1362 53.383 73.7199 53.9017C74.3036 54.4203 74.5815 55.1286 74.5704 56.0321L74.5593 56.0711H73.1695C73.1695 55.4911 73.0139 55.0505 72.7026 54.7438C72.3912 54.4371 71.9354 54.2865 71.335 54.2865C70.7346 54.2865 70.2899 54.5207 69.9508 54.9836C69.6117 55.4465 69.4393 56.0321 69.4393 56.7404V58.3912C69.4393 59.1051 69.6117 59.6962 69.9563 60.1591C70.301 60.622 70.7735 60.8562 71.3739 60.8562C71.9743 60.8562 72.4079 60.7001 72.7137 60.3934C73.0194 60.0866 73.1695 59.6405 73.1695 59.0604H74.5537L74.5482 59.0549Z" fill="white"/>
<path d="M82.8257 58.3412C82.8257 59.3953 82.4977 60.2709 81.8361 60.9624C81.1746 61.654 80.3185 61.9997 79.2623 61.9997C78.206 61.9997 77.3999 61.654 76.7495 60.9624C76.1047 60.2709 75.7822 59.3953 75.7822 58.3412V56.7852C75.7822 55.7367 76.1047 54.8611 76.7495 54.164C77.3944 53.4669 78.2338 53.1211 79.2623 53.1211C80.2907 53.1211 81.169 53.4669 81.8306 54.164C82.4921 54.8556 82.8201 55.7312 82.8201 56.7852V58.3412H82.8257ZM81.3914 56.7741C81.3914 56.0546 81.2024 55.4635 80.8188 55.0006C80.4352 54.5377 79.9182 54.309 79.2623 54.309C78.6063 54.309 78.1282 54.5432 77.7668 55.0006C77.3999 55.4635 77.222 56.0546 77.222 56.7741V58.3412C77.222 59.0662 77.4055 59.663 77.7724 60.1259C78.1393 60.5888 78.6341 60.823 79.2678 60.823C79.9015 60.823 80.4463 60.5943 80.8244 60.1314C81.2024 59.6685 81.397 59.0718 81.397 58.3412V56.7741H81.3914Z" fill="white"/>
<path d="M93.1043 59.6628C93.1043 59.3003 92.9764 59.0102 92.7263 58.7816C92.4705 58.5529 92.0202 58.3466 91.3754 58.1625C90.4526 57.906 89.7354 57.5714 89.2351 57.1531C88.7348 56.7348 88.4846 56.1938 88.4846 55.519C88.4846 54.8442 88.7626 54.253 89.3129 53.8013C89.8633 53.3495 90.5749 53.1265 91.4421 53.1265C92.3705 53.1265 93.1154 53.3774 93.6713 53.8738C94.2272 54.3757 94.4996 54.9948 94.4774 55.7254L94.4663 55.7588H93.0821C93.0821 55.3071 92.932 54.9446 92.6318 54.6769C92.3316 54.4092 91.9313 54.2753 91.431 54.2753C90.9307 54.2753 90.5749 54.3925 90.308 54.6211C90.0412 54.8498 89.9133 55.1454 89.9133 55.5079C89.9133 55.8369 90.0579 56.1158 90.3469 56.3277C90.636 56.5452 91.1141 56.746 91.7756 56.9412C92.6762 57.1921 93.3656 57.5379 93.8381 57.9729C94.3106 58.4079 94.5497 58.9656 94.5497 59.646C94.5497 60.3599 94.2662 60.9287 93.7102 61.3582C93.1543 61.7876 92.415 61.9995 91.5088 61.9995C90.6027 61.9995 89.8689 61.7653 89.224 61.2968C88.5791 60.8284 88.2623 60.1703 88.2789 59.3226L88.2901 59.2891H89.6743C89.6743 59.8078 89.8522 60.1982 90.208 60.4603C90.5638 60.7224 90.9974 60.8562 91.5088 60.8562C92.0203 60.8562 92.4094 60.7503 92.6929 60.5328C92.9764 60.3153 93.1154 60.0253 93.1154 59.6572L93.1043 59.6628Z" fill="white"/>
<path d="M102.699 53.2495V58.9325C102.699 59.8918 102.382 60.6447 101.754 61.1856C101.126 61.7266 100.314 61.9999 99.3194 61.9999C98.3243 61.9999 97.546 61.7266 96.9345 61.1856C96.3175 60.6447 96.0117 59.8918 96.0117 58.9325V53.2495H97.446V58.9325C97.446 59.546 97.6183 60.02 97.9574 60.3491C98.2965 60.6837 98.7524 60.851 99.3138 60.851C99.8753 60.851 100.365 60.6837 100.72 60.3491C101.076 60.0145 101.254 59.5404 101.254 58.9325V53.2495H102.688H102.699Z" fill="white"/>
<path d="M104.501 61.8772V53.2495H107.342C108.431 53.2495 109.321 53.5897 110.005 54.2757C110.688 54.9617 111.027 55.8373 111.027 56.9136V58.2242C111.027 59.3006 110.688 60.1818 110.005 60.8622C109.321 61.5426 108.431 61.8828 107.342 61.8828H104.501V61.8772ZM105.935 54.404V60.7283H107.342C108.031 60.7283 108.576 60.4941 108.982 60.0256C109.387 59.5571 109.588 58.9548 109.588 58.2187V56.8969C109.588 56.1719 109.387 55.5696 108.982 55.1011C108.576 54.6326 108.031 54.3984 107.342 54.3984H105.935V54.404Z" fill="white"/>
<path d="M117.081 59.8639H114.035L113.373 61.8772H111.889L114.891 53.2495H116.258L119.221 61.8772H117.737L117.081 59.8639ZM114.429 58.6592H116.692L115.586 55.2572H115.552L114.429 58.6592Z" fill="white"/>
<path d="M124.758 59.8862H124.797L127.282 53.2495H129.111V61.8772H127.677V55.6755H127.643L125.275 61.8772H124.291L121.878 55.5528L121.84 55.564V61.8772H120.405V53.2495H122.29L124.758 59.8862Z" fill="white"/>
<path d="M135.855 57.9956H132.486V60.7283H136.455V61.8772H131.046V53.2495H136.41V54.404H132.48V56.8411H135.849V57.9956H135.855Z" fill="white"/>
<path d="M139.306 58.2967V61.8772H137.872V53.2495H140.835C141.791 53.2495 142.531 53.467 143.059 53.902C143.587 54.337 143.843 54.9561 143.843 55.7648C143.843 56.2109 143.726 56.5957 143.498 56.9192C143.27 57.2427 142.931 57.4992 142.492 57.6944C142.975 57.8506 143.326 58.1015 143.542 58.4473C143.759 58.7931 143.865 59.2281 143.865 59.7412V60.4606C143.865 60.7116 143.898 60.9626 143.959 61.2024C144.02 61.4422 144.126 61.6262 144.271 61.7545V61.8884H142.792C142.636 61.7601 142.536 61.5537 142.492 61.2805C142.447 61.0016 142.425 60.7283 142.425 60.4495V59.7579C142.425 59.3173 142.297 58.966 142.047 58.7039C141.791 58.4417 141.447 58.3135 141.013 58.3135H139.317L139.306 58.2967ZM139.306 57.1423H140.752C141.324 57.1423 141.747 57.0307 142.008 56.8132C142.275 56.5902 142.403 56.2555 142.403 55.7982C142.403 55.3409 142.275 55.023 142.014 54.7776C141.752 54.5322 141.358 54.4095 140.824 54.4095H139.301V57.1479L139.306 57.1423Z" fill="white"/>
<path d="M147.245 61.8772H145.811V53.2495H147.245V61.8772Z" fill="white"/>
<path d="M155.578 59.0549L155.589 59.0883C155.606 59.9583 155.322 60.6611 154.744 61.1964C154.166 61.7318 153.382 61.9995 152.398 61.9995C151.414 61.9995 150.586 61.6593 149.963 60.9845C149.341 60.3097 149.029 59.4397 149.029 58.3856V56.746C149.029 55.6919 149.335 54.8275 149.952 54.1471C150.564 53.4667 151.37 53.1265 152.359 53.1265C153.349 53.1265 154.166 53.383 154.75 53.9017C155.333 54.4203 155.611 55.1286 155.6 56.0321L155.589 56.0711H154.199C154.199 55.4911 154.044 55.0505 153.732 54.7438C153.421 54.4371 152.965 54.2865 152.365 54.2865C151.764 54.2865 151.32 54.5207 150.981 54.9836C150.641 55.4465 150.469 56.0321 150.469 56.7404V58.3912C150.469 59.1051 150.641 59.6962 150.986 60.1591C151.331 60.622 151.803 60.8562 152.404 60.8562C153.004 60.8562 153.438 60.7001 153.743 60.3934C154.049 60.0866 154.199 59.6405 154.199 59.0604H155.584L155.578 59.0549Z" fill="white"/>
<path d="M161.571 59.8639H158.525L157.863 61.8772H156.379L159.381 53.2495H160.748L163.711 61.8772H162.227L161.571 59.8639ZM158.919 58.6592H161.182L160.076 55.2572H160.042L158.919 58.6592Z" fill="white"/>
<path d="M171.611 61.8772H170.177L166.369 55.6588L166.33 55.6699V61.8772H164.896V53.2495H166.33L170.143 59.4679L170.177 59.4568V53.2495H171.611V61.8772Z" fill="white"/>
<path d="M180.3 58.3412C180.3 59.3953 179.972 60.2709 179.31 60.9624C178.649 61.654 177.793 61.9997 176.736 61.9997C175.68 61.9997 174.874 61.654 174.224 60.9624C173.579 60.2709 173.256 59.3953 173.256 58.3412V56.7852C173.256 55.7367 173.579 54.8611 174.224 54.164C174.868 53.4669 175.708 53.1211 176.736 53.1211C177.765 53.1211 178.643 53.4669 179.305 54.164C179.966 54.8556 180.294 55.7312 180.294 56.7852V58.3412H180.3ZM178.866 56.7741C178.866 56.0546 178.677 55.4635 178.293 55.0006C177.909 54.5377 177.392 54.309 176.736 54.309C176.08 54.309 175.602 54.5432 175.241 55.0006C174.874 55.4635 174.696 56.0546 174.696 56.7741V58.3412C174.696 59.0662 174.88 59.663 175.247 60.1259C175.613 60.5888 176.108 60.823 176.742 60.823C177.376 60.823 177.92 60.5943 178.298 60.1314C178.677 59.6685 178.871 59.0718 178.871 58.3412V56.7741H178.866Z" fill="white"/>
<path fill-rule="evenodd" clip-rule="evenodd" d="M119.482 23.3679H121.612L120.928 22.0518L119.482 23.3679Z" fill="white"/>
<path fill-rule="evenodd" clip-rule="evenodd" d="M121.94 19.4639H86.8059C84.8824 19.4639 83.3203 21.031 83.3203 22.9607C83.3203 24.8903 84.8824 26.4575 86.8059 26.4575H121.94C123.863 26.4575 125.425 24.8903 125.425 22.9607C125.425 21.031 123.863 19.4639 121.94 19.4639ZM91.0142 22.4643L90.9808 22.5759H89.9635L90.0024 22.3918C90.0135 22.3472 90.0246 22.2747 90.0469 22.1799C90.0469 22.1632 90.0469 22.1353 90.0469 22.113C90.0358 22.0628 89.9079 21.9847 89.5799 21.9624C89.4243 21.9512 89.2352 21.9457 89.0184 21.9457C88.4236 21.9457 87.99 21.9568 87.7232 21.9847C87.1895 22.0349 86.8837 22.1855 86.8115 22.4364L86.5502 23.4013C86.5113 23.5351 86.4946 23.6467 86.4946 23.7359C86.5168 23.8084 86.5669 23.8586 86.6391 23.8865C86.7447 23.9311 86.9616 23.9813 87.4341 23.9813H87.9511C88.1234 23.9813 88.2457 23.9813 88.318 23.9868C88.6182 23.9868 88.8294 23.9757 88.9462 23.9645C89.1797 23.9478 89.3631 23.9143 89.4854 23.8642C89.5855 23.8251 89.6577 23.7693 89.6967 23.6857C89.7133 23.6467 89.7356 23.5965 89.7467 23.5407L89.8134 23.2674H90.8418L90.7251 23.7136C90.6806 23.8753 90.5861 24.0203 90.4416 24.1486C90.3471 24.2267 90.2415 24.288 90.1191 24.3382C89.8134 24.4609 89.3853 24.5334 88.8127 24.5501C88.5793 24.5557 88.2902 24.5613 87.9288 24.5613H87.195C86.5947 24.5613 86.1666 24.4832 85.8775 24.327C85.6607 24.2044 85.5162 24.0315 85.455 23.814V23.7917V23.7693C85.455 23.6299 85.4661 23.5407 85.4884 23.4793L85.8053 22.3695C85.9609 21.823 86.5113 21.5051 87.4452 21.4214C87.8566 21.3824 88.3235 21.3656 88.8239 21.3656H89.1463C89.541 21.3656 89.8579 21.3768 90.0914 21.3991C90.336 21.4214 90.5194 21.466 90.6695 21.5274C90.8919 21.6222 91.0197 21.7783 91.0642 21.9847C91.0864 22.1185 91.0642 22.2747 91.0142 22.4699V22.4643ZM97.3294 23.4515C97.2793 23.6188 97.246 23.7192 97.2071 23.7861C97.1459 23.9143 97.0625 24.0315 96.9513 24.1263C96.8346 24.2267 96.6845 24.3047 96.4899 24.3717C96.1786 24.4721 95.7506 24.5334 95.178 24.5501C94.9501 24.5501 94.6721 24.5557 94.3497 24.5557C93.4824 24.5557 92.9098 24.5111 92.5985 24.4219C92.1927 24.3103 92.0537 24.0705 92.0093 23.8976C92.0037 23.7638 92.0259 23.6188 92.0871 23.4013L92.6541 21.3824H93.6881L93.0766 23.4961C93.0766 23.4961 93.0599 23.5686 93.0321 23.6634C93.0155 23.7247 93.0043 23.7638 92.9988 23.7917C93.0321 23.8363 93.1322 23.9088 93.4213 23.9422C93.5603 23.959 93.8327 23.9701 94.3385 23.9813C94.3941 23.9701 94.6054 23.9701 94.711 23.9813C95.0501 23.9813 95.2892 23.9701 95.4059 23.9645C95.7506 23.9422 95.9173 23.8976 96.0007 23.8642C96.1064 23.8195 96.1786 23.7638 96.2175 23.6968C96.262 23.6299 96.3009 23.5295 96.3343 23.4013L96.9069 21.3824H97.9186L97.3405 23.4515H97.3294ZM103.378 21.968H100.07L99.881 22.6372H103.061L102.872 23.2061H99.7087L99.4974 23.9534H102.811L102.633 24.5334H98.3078L99.2084 21.3879H103.544L103.372 21.968H103.378ZM109.743 24.5334H108.409L105.774 22.0683L105.057 24.5334H104.023L104.957 21.3879H106.291L108.926 23.8809L109.637 21.3879H110.666L109.749 24.5334H109.743ZM116.981 22.5759H115.964L116.003 22.3918C116.014 22.3472 116.025 22.2747 116.047 22.1799C116.047 22.1632 116.047 22.1353 116.047 22.113C116.036 22.0628 115.908 21.9847 115.58 21.9624C115.424 21.9512 115.235 21.9457 115.019 21.9457C114.424 21.9457 113.99 21.9568 113.723 21.9847C113.19 22.0349 112.884 22.1855 112.812 22.4364L112.55 23.4013C112.511 23.5351 112.495 23.6467 112.495 23.7359C112.517 23.8084 112.567 23.8586 112.639 23.8865C112.745 23.9311 112.962 23.9813 113.434 23.9813H113.951C114.124 23.9813 114.246 23.9813 114.318 23.9868C114.618 23.9868 114.83 23.9757 114.946 23.9645C115.18 23.9478 115.363 23.9143 115.486 23.8642C115.586 23.8251 115.658 23.7693 115.697 23.6857C115.713 23.6467 115.736 23.5965 115.747 23.5407L115.814 23.2674H116.842L116.725 23.7136C116.681 23.8753 116.586 24.0203 116.442 24.1486C116.347 24.2267 116.242 24.288 116.119 24.3382C115.814 24.4609 115.385 24.5334 114.813 24.5501C114.579 24.5557 114.29 24.5613 113.929 24.5613H113.195C112.595 24.5613 112.167 24.4832 111.878 24.327C111.661 24.2044 111.516 24.0315 111.455 23.814V23.7917V23.7693C111.455 23.6299 111.466 23.5407 111.489 23.4793L111.805 22.3695C111.961 21.823 112.511 21.5051 113.445 21.4214C113.857 21.3824 114.324 21.3656 114.824 21.3656H115.146C115.541 21.3656 115.858 21.3768 116.091 21.3991C116.336 21.4214 116.52 21.466 116.67 21.5274C116.892 21.6222 117.02 21.7783 117.064 21.9847C117.087 22.1185 117.064 22.2747 117.014 22.4699L116.981 22.5814V22.5759ZM122.218 24.5334L121.895 23.9367H118.899L118.221 24.5334H117.048L120.472 21.3879H121.628L123.291 24.5334H122.223H122.218Z" fill="white"/>
</g>
<defs>
<clipPath id="clip0_122_582">
<rect width="189.1" height="62" fill="white"/>
</clipPath>
</defs>
</svg>
