<svg width="29" height="25" viewBox="0 0 29 25" fill="none" xmlns="http://www.w3.org/2000/svg">
<path d="M19.5349 14.063L16.533 16.9211L25.0186 24.9998L28.0205 22.1418L19.5349 14.063Z" fill="white"/>
<path d="M21.7935 9.95321C24.5247 9.95321 26.7465 7.83794 26.7465 5.23765C26.7465 4.45621 26.5201 3.72866 26.1663 3.08196L22.3454 6.71968L20.2368 4.7122L24.0577 1.07448C23.3785 0.737649 22.6143 0.52208 21.7935 0.52208C19.0622 0.52208 16.8404 2.63735 16.8404 5.23765C16.8404 5.79004 16.9536 6.31549 17.1376 6.80052L14.5195 9.29303L12.0006 6.89483L13.0053 5.93824L11.0099 4.03855L14.0101 1.18226C12.3544 -0.394087 9.66555 -0.394087 8.00981 1.18226L3.00014 5.95172L4.99552 7.85142H1.00476L0 8.808L5.00967 13.5775L6.01443 12.6209V8.808L8.00981 10.7077L9.01457 9.75112L11.5336 12.1493L1.04722 22.1328L4.04736 24.9891L20.1519 9.67028C20.6613 9.84543 21.2133 9.95321 21.7935 9.95321Z" fill="white"/>
</svg>
